<?xml version="1.0" encoding="UTF-8" standalone="no"?>
<!-- Created with Inkscape (http://www.inkscape.org/) -->

<svg
   width="3840"
   height="2160"
   viewBox="0 0 1016 571.5"
   version="1.1"
   id="svg189"
   inkscape:version="1.2.1 (0f2f062aeb, 2022-09-21, custom)"
   sodipodi:docname="a6.svg"
   xmlns:inkscape="http://www.inkscape.org/namespaces/inkscape"
   xmlns:sodipodi="http://sodipodi.sourceforge.net/DTD/sodipodi-0.dtd"
   xmlns:xlink="http://www.w3.org/1999/xlink"
   xmlns="http://www.w3.org/2000/svg"
   xmlns:svg="http://www.w3.org/2000/svg">
  <sodipodi:namedview
     id="namedview191"
     pagecolor="#505050"
     bordercolor="#ffffff"
     borderopacity="1"
     inkscape:showpageshadow="0"
     inkscape:pageopacity="0"
     inkscape:pagecheckerboard="1"
     inkscape:deskcolor="#505050"
     inkscape:document-units="px"
     showgrid="false"
     inkscape:zoom="0.26645562"
     inkscape:cx="1897.1264"
     inkscape:cy="883.82448"
     inkscape:window-width="1868"
     inkscape:window-height="1016"
     inkscape:window-x="52"
     inkscape:window-y="27"
     inkscape:window-maximized="1"
     inkscape:current-layer="layer1" />
  <defs
     id="defs186">
    <linearGradient
       gradientUnits="userSpaceOnUse"
       y2="503.67999"
       y1="507.29999"
       x2="262.79999"
       x1="213.66"
       id="p">
      <stop
         id="stop3654"
         offset="0"
         stop-color="#e6e6e6" />
      <stop
         id="stop3656"
         offset="1"
         stop-opacity="0"
         stop-color="#e6e6e6" />
    </linearGradient>
    <linearGradient
       xlink:href="#i"
       gradientUnits="userSpaceOnUse"
       y2="713.84998"
       y1="738.84998"
       x2="411.92999"
       x1="621.54999"
       id="o" />
    <linearGradient
       id="i">
      <stop
         id="stop3644"
         offset="0"
         stop-color="#ccc" />
      <stop
         id="stop3646"
         offset="1"
         stop-opacity="0"
         stop-color="#ccc" />
    </linearGradient>
    <linearGradient
       xlink:href="#i"
       gradientUnits="userSpaceOnUse"
       y2="322.39001"
       y1="360.22"
       x2="436.89001"
       x1="661.66998"
       id="q" />
    <filter
       id="j"
       x="-0.046306349"
       y="-0.030907832"
       width="1.0926183"
       height="1.0618101">
      <feGaussianBlur
         id="feGaussianBlur3610"
         stdDeviation="2.71542" />
    </filter>
    <filter
       id="filter966"
       x="-0.046306349"
       y="-0.030907832"
       width="1.0926183"
       height="1.0618101">
      <feGaussianBlur
         id="feGaussianBlur964"
         stdDeviation="2.71542" />
    </filter>
    <linearGradient
       xlink:href="#g"
       gradientUnits="userSpaceOnUse"
       y2="834.88"
       y1="887.91998"
       x2="466.92999"
       x1="394.73001"
       id="k" />
    <linearGradient
       id="g">
      <stop
         id="stop3634"
         offset="0" />
      <stop
         id="stop3636"
         offset="1"
         stop-opacity="0" />
    </linearGradient>
    <linearGradient
       xlink:href="#g"
       gradientUnits="userSpaceOnUse"
       y2="422.57999"
       y1="495.62"
       x2="291.48001"
       x1="296.94"
       id="n" />
    <filter
       id="s"
       x="-0.044527929"
       y="-0.053420883"
       width="1.0890559"
       height="1.1068418">
      <feGaussianBlur
         id="feGaussianBlur3613"
         stdDeviation="1.71955" />
    </filter>
    <filter
       height="1.1107364"
       width="1.3810042"
       y="-0.055368222"
       x="-0.19050209"
       id="r">
      <feGaussianBlur
         id="feGaussianBlur3619"
         stdDeviation="2.29248" />
    </filter>
    <filter
       height="1.1872218"
       width="1.3744498"
       y="-0.093610913"
       x="-0.18722489"
       id="v">
      <feGaussianBlur
         id="feGaussianBlur3625"
         stdDeviation=".94728" />
    </filter>
    <filter
       id="u"
       x="-0.07333979"
       y="-0.090819985"
       width="1.1466796"
       height="1.18164">
      <feGaussianBlur
         id="feGaussianBlur3616"
         stdDeviation="1.77462" />
    </filter>
    <filter
       height="1.2735533"
       width="1.3424896"
       y="-0.1367766"
       x="-0.17124479"
       id="t">
      <feGaussianBlur
         id="feGaussianBlur3628"
         stdDeviation="2.37859" />
    </filter>
    <radialGradient
       gradientUnits="userSpaceOnUse"
       r="27.545"
       cy="15.163"
       cx="15.891"
       id="a">
      <stop
         id="stop3287"
         offset="0"
         stop-color="#fff" />
      <stop
         id="stop3289"
         offset="1"
         stop-opacity="0"
         stop-color="#00f038" />
    </radialGradient>
    <radialGradient
       gradientUnits="userSpaceOnUse"
       gradientTransform="matrix(0.91888,0.94532,-0.71707,0.69701,13.381,-10.047)"
       r="27.545"
       cy="16.847"
       cx="16.028"
       id="c">
      <stop
         id="stop3292"
         offset="0"
         stop-color="#9bffb3" />
      <stop
         id="stop3294"
         offset="1"
         stop-color="#00f038" />
    </radialGradient>
    <radialGradient
       gradientUnits="userSpaceOnUse"
       r="27.545"
       cy="15.163"
       cx="15.891"
       id="radialGradient1002">
      <stop
         id="stop998"
         offset="0"
         stop-color="#fff" />
      <stop
         id="stop1000"
         offset="1"
         stop-opacity="0"
         stop-color="#00f038" />
    </radialGradient>
    <radialGradient
       gradientUnits="userSpaceOnUse"
       gradientTransform="matrix(0.91888,0.94532,-0.71707,0.69701,13.381,-10.047)"
       r="27.545"
       cy="16.847"
       cx="16.028"
       id="radialGradient1009">
      <stop
         id="stop1005"
         offset="0"
         stop-color="#9bffb3" />
      <stop
         id="stop1007"
         offset="1"
         stop-color="#00f038" />
    </radialGradient>
    <radialGradient
       gradientUnits="userSpaceOnUse"
       r="27.545"
       cy="15.163"
       cx="15.891"
       id="radialGradient1016">
      <stop
         id="stop1012"
         offset="0"
         stop-color="#fff" />
      <stop
         id="stop1014"
         offset="1"
         stop-opacity="0"
         stop-color="#00f038" />
    </radialGradient>
    <radialGradient
       gradientUnits="userSpaceOnUse"
       gradientTransform="matrix(0.91888,0.94532,-0.71707,0.69701,13.381,-10.047)"
       r="27.545"
       cy="16.847"
       cx="16.028"
       id="radialGradient1023">
      <stop
         id="stop1019"
         offset="0"
         stop-color="#9bffb3" />
      <stop
         id="stop1021"
         offset="1"
         stop-color="#00f038" />
    </radialGradient>
    <radialGradient
       gradientUnits="userSpaceOnUse"
       r="27.545"
       cy="15.163"
       cx="15.891"
       id="radialGradient1030">
      <stop
         id="stop1026"
         offset="0"
         stop-color="#fff" />
      <stop
         id="stop1028"
         offset="1"
         stop-opacity="0"
         stop-color="#00f038" />
    </radialGradient>
    <radialGradient
       gradientUnits="userSpaceOnUse"
       gradientTransform="matrix(0.91888,0.94532,-0.71707,0.69701,13.381,-10.047)"
       r="27.545"
       cy="16.847"
       cx="16.028"
       id="radialGradient1037">
      <stop
         id="stop1033"
         offset="0"
         stop-color="#9bffb3" />
      <stop
         id="stop1035"
         offset="1"
         stop-color="#00f038" />
    </radialGradient>
    <radialGradient
       gradientUnits="userSpaceOnUse"
       r="27.545"
       cy="15.163"
       cx="15.891"
       id="radialGradient1044">
      <stop
         id="stop1040"
         offset="0"
         stop-color="#fff" />
      <stop
         id="stop1042"
         offset="1"
         stop-opacity="0"
         stop-color="#00f038" />
    </radialGradient>
    <radialGradient
       gradientUnits="userSpaceOnUse"
       gradientTransform="matrix(0.91888,0.94532,-0.71707,0.69701,13.381,-10.047)"
       r="27.545"
       cy="16.847"
       cx="16.028"
       id="radialGradient1051">
      <stop
         id="stop1047"
         offset="0"
         stop-color="#9bffb3" />
      <stop
         id="stop1049"
         offset="1"
         stop-color="#00f038" />
    </radialGradient>
    <radialGradient
       gradientUnits="userSpaceOnUse"
       r="27.545"
       cy="15.163"
       cx="15.891"
       id="radialGradient1058">
      <stop
         id="stop1054"
         offset="0"
         stop-color="#fff" />
      <stop
         id="stop1056"
         offset="1"
         stop-opacity="0"
         stop-color="#00f038" />
    </radialGradient>
    <radialGradient
       gradientUnits="userSpaceOnUse"
       gradientTransform="matrix(0.91888,0.94532,-0.71707,0.69701,13.381,-10.047)"
       r="27.545"
       cy="16.847"
       cx="16.028"
       id="b">
      <stop
         id="stop3297"
         offset="0"
         stop-color="#ff9b9b" />
      <stop
         id="stop3299"
         offset="1"
         stop-color="#f00000" />
    </radialGradient>
    <radialGradient
       gradientUnits="userSpaceOnUse"
       r="27.545"
       cy="15.163"
       cx="15.891"
       id="radialGradient1068">
      <stop
         id="stop1064"
         offset="0"
         stop-color="#fff" />
      <stop
         id="stop1066"
         offset="1"
         stop-opacity="0"
         stop-color="#00f038" />
    </radialGradient>
    <radialGradient
       gradientUnits="userSpaceOnUse"
       gradientTransform="matrix(0.91888,0.94532,-0.71707,0.69701,13.381,-10.047)"
       r="27.545"
       cy="16.847"
       cx="16.028"
       id="radialGradient1075">
      <stop
         id="stop1071"
         offset="0"
         stop-color="#9bffb3" />
      <stop
         id="stop1073"
         offset="1"
         stop-color="#00f038" />
    </radialGradient>
    <filter
       id="q-3"
       x="-0.060039597"
       y="-0.059957792"
       width="1.1200792"
       height="1.1199156">
      <feGaussianBlur
         stdDeviation="5.728"
         id="feGaussianBlur2915" />
    </filter>
    <linearGradient
       id="n-6"
       x2="0"
       y1="586.85999"
       y2="544.59998"
       gradientUnits="userSpaceOnUse"
       xlink:href="#a-7" />
    <linearGradient
       id="a-7">
      <stop
         stop-color="#9c9c9c"
         offset="0"
         id="stop2918" />
      <stop
         stop-color="#fff"
         offset="1"
         id="stop2920" />
    </linearGradient>
    <radialGradient
       id="h"
       cx="83.932999"
       cy="949.78003"
       r="105.6"
       gradientUnits="userSpaceOnUse">
      <stop
         stop-color="#d5f6ff"
         offset="0"
         id="stop2961" />
      <stop
         stop-color="#0098be"
         offset="1"
         id="stop2963" />
    </radialGradient>
    <linearGradient
       id="m"
       x2="0"
       y1="961.03998"
       y2="755.69"
       gradientUnits="userSpaceOnUse">
      <stop
         stop-color="#999"
         offset="0"
         id="stop2933" />
      <stop
         stop-color="#e6e6e6"
         offset="1"
         id="stop2935" />
    </linearGradient>
    <linearGradient
       id="l"
       x1="136.21001"
       x2="157.60001"
       y1="958.07001"
       y2="902.60999"
       gradientUnits="userSpaceOnUse"
       xlink:href="#a-7" />
    <mask
       id="b-5"
       maskUnits="userSpaceOnUse">
      <path
         d="m 84.094,829.08 c -25.153,1.2433 -47.92,22.016 -50.625,47.25 12.099,10.751 30.812,16.083 45.25,6.8438 8.6561,-5.6183 15.868,-14.308 26.688,-15.719 12.909,-2.4273 25.778,3.0259 36.156,10.312 -2.2755,-26.836 -27.239,-49.438 -54.188,-48.719 -1.0937,0.0112 -2.1883,-0.0277 -3.2813,0.0312 z"
         fill="url(#i)"
         fill-rule="evenodd"
         opacity="0.788"
         id="path2958"
         style="fill:url(#i-3)" />
    </mask>
    <radialGradient
       id="i-3"
       cx="87.515999"
       cy="851.13"
       r="54.047001"
       gradientTransform="matrix(1.5624,0,0,0.84387,-49.216,156.4)"
       gradientUnits="userSpaceOnUse"
       xlink:href="#e" />
    <linearGradient
       id="e">
      <stop
         stop-color="#666"
         offset="0"
         id="stop2923" />
      <stop
         stop-color="#fff"
         offset="1"
         id="stop2925" />
    </linearGradient>
    <mask
       id="c-5"
       maskUnits="userSpaceOnUse">
      <path
         d="m 84.094,829.08 c -25.153,1.2433 -47.92,22.016 -50.625,47.25 12.099,10.751 30.812,16.083 45.25,6.8438 8.6561,-5.6183 15.868,-14.308 26.688,-15.719 12.909,-2.4273 25.778,3.0259 36.156,10.312 -2.2755,-26.836 -27.239,-49.438 -54.188,-48.719 -1.0937,0.0112 -2.1883,-0.0277 -3.2813,0.0312 z"
         fill="url(#o)"
         fill-rule="evenodd"
         id="path2955"
         style="fill:url(#o-6)" />
    </mask>
    <linearGradient
       id="o-6"
       x1="33.469002"
       x2="141.56"
       gradientUnits="userSpaceOnUse"
       xlink:href="#f" />
    <linearGradient
       id="f">
      <stop
         stop-color="#fff"
         offset="0"
         id="stop2928" />
      <stop
         stop-color="#4d4d4d"
         offset="1"
         id="stop2930" />
    </linearGradient>
    <mask
       id="d"
       maskUnits="userSpaceOnUse">
      <path
         d="m 84.094,829.08 c -25.153,1.2433 -47.92,22.016 -50.625,47.25 12.099,10.751 30.812,16.083 45.25,6.8438 8.6561,-5.6183 15.868,-14.308 26.688,-15.719 12.909,-2.4273 25.778,3.0259 36.156,10.312 -2.2755,-26.836 -27.239,-49.438 -54.188,-48.719 -1.0937,0.0112 -2.1883,-0.0277 -3.2813,0.0312 z"
         fill="url(#p)"
         fill-rule="evenodd"
         id="path2952"
         style="fill:url(#p-2)" />
    </mask>
    <linearGradient
       id="p-2"
       x2="0"
       y1="829.03003"
       y2="887.91998"
       gradientUnits="userSpaceOnUse"
       xlink:href="#f" />
    <mask
       id="mask2329"
       maskUnits="userSpaceOnUse">
      <path
         d="m 84.094,829.08 c -25.153,1.2433 -47.92,22.016 -50.625,47.25 12.099,10.751 30.812,16.083 45.25,6.8438 8.6561,-5.6183 15.868,-14.308 26.688,-15.719 12.909,-2.4273 25.778,3.0259 36.156,10.312 -2.2755,-26.836 -27.239,-49.438 -54.188,-48.719 -1.0937,0.0112 -2.1883,-0.0277 -3.2813,0.0312 z"
         fill="url(#i)"
         fill-rule="evenodd"
         opacity="0.788"
         id="path2327"
         style="fill:url(#i-3)" />
    </mask>
    <radialGradient
       id="radialGradient2331"
       cx="87.515999"
       cy="851.13"
       r="54.047001"
       gradientTransform="matrix(1.5624,0,0,0.84387,-49.216,156.4)"
       gradientUnits="userSpaceOnUse"
       xlink:href="#e" />
    <mask
       id="mask2341"
       maskUnits="userSpaceOnUse">
      <path
         d="m 84.094,829.08 c -25.153,1.2433 -47.92,22.016 -50.625,47.25 12.099,10.751 30.812,16.083 45.25,6.8438 8.6561,-5.6183 15.868,-14.308 26.688,-15.719 12.909,-2.4273 25.778,3.0259 36.156,10.312 -2.2755,-26.836 -27.239,-49.438 -54.188,-48.719 -1.0937,0.0112 -2.1883,-0.0277 -3.2813,0.0312 z"
         fill="url(#o)"
         fill-rule="evenodd"
         id="path2339"
         style="fill:url(#o-6)" />
    </mask>
    <linearGradient
       id="linearGradient2343"
       x1="33.469002"
       x2="141.56"
       gradientUnits="userSpaceOnUse"
       xlink:href="#f" />
    <mask
       id="mask2353"
       maskUnits="userSpaceOnUse">
      <path
         d="m 84.094,829.08 c -25.153,1.2433 -47.92,22.016 -50.625,47.25 12.099,10.751 30.812,16.083 45.25,6.8438 8.6561,-5.6183 15.868,-14.308 26.688,-15.719 12.909,-2.4273 25.778,3.0259 36.156,10.312 -2.2755,-26.836 -27.239,-49.438 -54.188,-48.719 -1.0937,0.0112 -2.1883,-0.0277 -3.2813,0.0312 z"
         fill="url(#p)"
         fill-rule="evenodd"
         id="path2351"
         style="fill:url(#p-2)" />
    </mask>
    <linearGradient
       id="linearGradient2355"
       x2="0"
       y1="829.03003"
       y2="887.91998"
       gradientUnits="userSpaceOnUse"
       xlink:href="#f" />
    <radialGradient
       id="g-9"
       cx="165.08"
       cy="171.85001"
       r="11.283"
       gradientTransform="matrix(2.7952,0.74897,-0.92973,3.4698,-136.57,-548.09)"
       gradientUnits="userSpaceOnUse"
       xlink:href="#e" />
    <linearGradient
       id="k-1"
       x1="164.58"
       x2="143.00999"
       y1="171.58"
       y2="143.57001"
       gradientUnits="userSpaceOnUse"
       xlink:href="#a-7" />
    <linearGradient
       id="j-2"
       x1="804.15002"
       x2="804"
       y1="579.95001"
       y2="550.51001"
       gradientUnits="userSpaceOnUse">
      <stop
         stop-color="#d88000"
         offset="0"
         id="stop2938" />
      <stop
         stop-color="#ffe1b5"
         offset=".311"
         id="stop2940" />
      <stop
         stop-color="#ec9c1a"
         offset=".71"
         id="stop2942" />
      <stop
         stop-color="#885600"
         offset="1"
         id="stop2944" />
    </linearGradient>
    <linearGradient
       inkscape:collect="always"
       xlink:href="#a-7"
       id="linearGradient2764"
       gradientUnits="userSpaceOnUse"
       y1="586.85999"
       x2="0"
       y2="544.59998" />
    <radialGradient
       inkscape:collect="always"
       xlink:href="#h"
       id="radialGradient2766"
       gradientUnits="userSpaceOnUse"
       cx="83.932999"
       cy="949.78003"
       r="105.6" />
    <linearGradient
       inkscape:collect="always"
       xlink:href="#m"
       id="linearGradient2768"
       gradientUnits="userSpaceOnUse"
       y1="961.03998"
       x2="0"
       y2="755.69" />
    <linearGradient
       inkscape:collect="always"
       xlink:href="#a-7"
       id="linearGradient2770"
       gradientUnits="userSpaceOnUse"
       x1="136.21001"
       y1="958.07001"
       x2="157.60001"
       y2="902.60999" />
    <radialGradient
       inkscape:collect="always"
       xlink:href="#e"
       id="radialGradient2772"
       gradientUnits="userSpaceOnUse"
       gradientTransform="matrix(2.7952,0.74897,-0.92973,3.4698,-136.57,-548.09)"
       cx="165.08"
       cy="171.85001"
       r="11.283" />
    <linearGradient
       inkscape:collect="always"
       xlink:href="#a-7"
       id="linearGradient2774"
       gradientUnits="userSpaceOnUse"
       x1="164.58"
       y1="171.58"
       x2="143.00999"
       y2="143.57001" />
    <linearGradient
       inkscape:collect="always"
       xlink:href="#j-2"
       id="linearGradient2776"
       gradientUnits="userSpaceOnUse"
       x1="804.15002"
       y1="579.95001"
       x2="804"
       y2="550.51001" />
    <radialGradient
       inkscape:collect="always"
       xlink:href="#h"
       id="radialGradient2778"
       gradientUnits="userSpaceOnUse"
       cx="83.932999"
       cy="949.78003"
       r="105.6" />
    <linearGradient
       inkscape:collect="always"
       xlink:href="#m"
       id="linearGradient2780"
       gradientUnits="userSpaceOnUse"
       y1="961.03998"
       x2="0"
       y2="755.69" />
    <linearGradient
       inkscape:collect="always"
       xlink:href="#j-2"
       id="linearGradient2782"
       gradientUnits="userSpaceOnUse"
       x1="804.15002"
       y1="579.95001"
       x2="804"
       y2="550.51001" />
  </defs>
  <g
     inkscape:label="Layer 1"
     inkscape:groupmode="layer"
     id="layer1"
     ref="layer1">
    <path
       style="fill:#ffffff;fill-opacity:1;stroke:none;stroke-width:1.02767px;stroke-linecap:butt;stroke-linejoin:miter;stroke-opacity:1"
       d="M 254.83197,517.48096 253.17206,67.584983 c 48.25179,1.864651 89.63283,-1.251152 160.74693,-8.464967 55.31881,-1.522519 109.29561,-1.105706 156.93804,8.464967 L 736.62418,230.52851 726.58146,508.47354 c -68.94979,0.57437 -139.81419,2.02912 -233.72754,14.08821 z"
       id="path10882"
       sodipodi:nodetypes="cccccccc" />
    <path
       id="path10884"
       style="fill:#d41034;fill-opacity:1;stroke:none;stroke-width:1.97263;stroke-linecap:round;stroke-linejoin:miter;stroke-miterlimit:0;stroke-dasharray:none;stop-color:#000000"
       d="m 486.63201,138.48544 a 199.29262,199.29262 0 0 0 -199.2866,199.05835 h 78.44265 A 120.8531,120.8531 0 0 1 486.63201,216.92446 120.8531,120.8531 0 0 1 607.47232,337.54379 h 78.44636 A 199.29262,199.29262 0 0 0 486.63201,138.48544 Z"
       ref="target1" />
    <path
       style="fill:#ffffff;fill-opacity:1;stroke:none;stroke-width:1.06559;stroke-linecap:round;stroke-linejoin:miter;stroke-miterlimit:0;stroke-dasharray:none;stroke-opacity:1"
       d="m 564.84484,66.03118 6.13333,162.64736 C 629.717,218.42168 686.00455,216.48413 736.30628,230.63882 680.11258,173.00285 624.64569,111.85699 564.84484,66.03118 Z"
       id="path10886"
       sodipodi:nodetypes="cccc" />
    <path
       style="fill:#000000;stroke-width:1.06559;stroke-linecap:round;stroke-linejoin:miter;stroke-miterlimit:0;stroke-dasharray:none;stop-color:#000000"
       id="path10888"
       d="m 240.5468,72.593799 c 14.07994,0.297876 28.15774,0.649912 42.22521,1.321702 14.08785,0.822439 28.1923,1.581311 42.27922,0.28505 7.78035,-0.715902 13.43523,-1.76695 21.12722,-3.013756 13.43801,-2.285097 26.81088,-4.951092 40.35186,-6.585993 9.17581,-1.107844 12.93647,-1.318495 22.05655,-2.047865 10.85147,-0.698371 21.71891,-1.318425 32.59674,-1.336169 6.30971,-0.01425 10.5055,0.13041 16.82568,0.281486 16.22301,0.928762 32.46812,1.222007 48.70958,1.639889 11.66572,0.302152 23.33557,0.203098 34.9913,0.82536 1.66505,0.135399 4.13101,0.266521 5.84024,0.634235 1.39702,0.300727 3.56176,1.127512 4.85574,1.586086 3.80071,1.346786 1.57055,0.537318 5.19987,1.876265 0,0 12.62612,-8.51314 12.62612,-8.51314 v 0 c -1.73332,-0.629246 -3.4796,-1.222434 -5.20928,-1.861229 -0.67913,-0.250844 -4.23512,-1.678585 -5.02029,-1.86914 -1.68136,-0.408333 -4.55694,-0.485297 -6.16618,-0.580788 -11.81793,-0.429712 -23.64271,-0.44539 -35.46691,-0.528767 -16.27703,-0.204522 -32.53681,-0.814528 -48.79723,-1.564992 -3.35411,-0.09193 -13.33297,-0.383391 -16.74323,-0.406195 -11.04702,-0.07483 -22.07493,0.728444 -33.08225,1.570622 -10.90079,0.889995 -21.80036,1.746568 -32.63131,3.31156 -7.19685,1.039789 -12.37969,2.114924 -19.55139,3.402563 -3.41753,0.613568 -6.83969,1.200841 -10.25957,1.801298 -7.2964,1.224286 -13.72491,2.426339 -21.09928,3.163976 -13.97048,1.397454 -27.95642,0.626396 -41.9259,-0.337071 -3.00421,-0.178868 -6.00656,-0.389805 -9.01248,-0.535893 -10.75505,-0.522353 -21.54695,-0.47817 -32.27008,-1.564778 0,0 -12.44995,9.04547 -12.44995,9.04547 z" />
    <path
       style="fill:#000000;stroke-width:1.05096;stroke-linecap:round;stroke-linejoin:miter;stroke-miterlimit:0;stroke-dasharray:none;stop-color:#000000"
       id="path10890"
       d="m 557.19654,66.786204 c 3.40555,7.131791 6.5743,14.589679 8.14535,22.378153 0.36059,1.786903 0.53875,3.605802 0.80798,5.408668 1.23483,13.292205 -0.68056,26.587045 -2.52996,39.726255 -1.22293,8.98896 -2.39456,18.00072 -3.0439,27.05346 -0.32567,4.5362 -0.39978,8.08906 -0.55228,12.646 -0.65134,13.24489 0.51808,26.44638 1.58195,39.63062 0.73721,6.6869 -0.33279,13.06623 -2.26522,19.43395 0,0 13.60997,-6.47012 13.60997,-6.47012 v 0 c 1.73666,-6.66909 2.50665,-12.77812 1.58844,-19.70646 -0.12685,-1.18951 -1.1241,-10.48996 -1.18944,-11.25909 -0.79401,-9.34997 -0.88002,-18.74014 -0.48245,-28.11249 0.54801,-13.21702 1.51561,-26.41901 3.53682,-39.50327 1.91895,-13.30525 3.80491,-26.76165 2.59894,-40.230155 -0.27864,-1.8556 -0.46321,-3.727732 -0.83548,-5.566657 -1.61039,-7.951094 -5.10466,-15.39195 -7.78049,-23.00519 0,0 -13.19023,7.576326 -13.19023,7.576326 z" />
    <path
       style="fill:#000000;stroke-width:1.06559;stroke-linecap:round;stroke-linejoin:miter;stroke-miterlimit:0;stroke-dasharray:none;stop-color:#000000"
       id="path10892"
       d="m 554.87894,235.96276 c 21.69967,-6.24308 44.23481,-8.89005 66.64282,-11.09277 17.64185,-1.54967 35.34911,-2.13266 53.05288,-2.23421 8.69394,0.007 17.38758,0.0285 26.08123,0.0933 6.88544,-0.35203 13.57619,0.90867 20.25261,2.4175 l 12.60895,-6.28947 v 0 c 0,0 -13.70745,-5.46639 -20.6938,-4.96156 -8.79448,2.8e-4 -17.59025,-0.0891 -26.38345,0.0933 -18.03365,0.4119 -36.06259,1.18053 -54.0326,2.8083 -21.94395,2.14507 -43.87172,4.87891 -65.39744,9.76843 l -12.1312,9.39715 z"
       sodipodi:nodetypes="scccccscccccs" />
    <path
       style="fill:#000000;stroke-width:1.43722;stroke-linecap:round;stroke-linejoin:miter;stroke-miterlimit:0;stroke-dasharray:none;stop-color:#000000"
       id="path10894"
       d="m 725.4226,243.7429 c -0.96768,34.63277 -2.25332,69.24268 -2.8252,103.90753 0.0791,8.53124 -0.2373,17.44273 0.99375,25.80209 0.27721,1.88489 1.00138,4.96698 1.41641,6.81859 0,0 13.40737,-13.66077 13.40737,-13.66077 v 0 c -0.55015,-2.36933 -0.92969,-3.8141 -1.32356,-6.32054 -1.25371,-7.97818 -1.33445,-16.40887 -1.52579,-24.6257 -0.14823,-34.71672 0.7407,-69.48654 3.13397,-103.94558 0,0 -13.27695,12.02438 -13.27695,12.02438 z" />
    <path
       style="fill:#000000;stroke-width:1.07887;stroke-linecap:round;stroke-linejoin:miter;stroke-miterlimit:0;stroke-dasharray:none;stop-color:#000000"
       id="path10896"
       d="m 245.31738,90.627372 c 0.12115,5.698778 0.18671,11.401048 0.10333,17.100748 -0.0214,5.83382 -0.51807,11.67099 -0.34704,17.50673 0.0641,2.19317 0.40904,6.31235 0.58007,8.51521 0.96183,10.288 1.20718,20.62674 1.3175,30.9612 0.20523,11.23102 -1.80351,22.27525 -3.14866,33.35441 -0.91137,8.85912 -2.33334,17.74211 -2.30954,26.68802 0.004,1.75598 0.11616,3.5096 0.1746,5.26437 0.51522,8.53957 1.50848,17.06205 3.08373,25.44428 1.01506,5.40112 2.16958,10.17028 3.39993,15.52813 2.65316,10.52346 4.84555,21.18772 5.62046,32.10162 0.36343,5.11286 0.33137,8.97969 0.38695,14.08485 0.006,9.90504 -1.19193,19.76205 -3.59675,29.29409 -0.62212,2.29957 -1.60504,4.43879 -2.49468,6.61728 0,0 13.42212,-6.81987 13.42212,-6.81987 v 0 c 0.84545,-2.21569 1.70986,-4.42939 2.23443,-6.77363 2.01544,-9.63802 3.08793,-19.49737 2.93415,-29.40441 -0.11473,-5.58397 -0.0898,-8.54713 -0.55727,-14.15398 -0.91387,-10.9491 -3.20652,-21.63766 -5.77681,-32.23551 -2.92625,-13.44963 -5.56024,-27.02489 -5.94093,-40.91106 -0.0285,-1.73225 -0.10547,-3.46421 -0.0912,-5.1966 0.0741,-8.86688 1.26982,-17.6831 2.2226,-26.46661 1.3755,-11.1656 3.46377,-22.31359 3.16711,-33.63803 -0.26723,-10.3795 -0.34919,-20.7838 -1.23191,-31.12731 -0.2259,-2.92354 -0.45964,-5.44908 -0.53233,-8.38715 -0.14466,-5.82905 0.28719,-11.65916 0.38268,-17.48414 0.16889,-5.787074 0.16248,-11.575143 0.28362,-17.363069 0,0 -13.28636,7.500431 -13.28636,7.500431 z" />
    <path
       style="fill:#000000;stroke-width:0.856174;stroke-linecap:round;stroke-linejoin:miter;stroke-miterlimit:0;stroke-dasharray:none;stop-color:#000000"
       id="path10898"
       d="m 612.91135,112.13798 c 9.07839,8.01765 10.86487,13.37843 19.76924,21.55878 9.94836,9.21165 19.82967,18.48459 29.71532,27.75332 7.48005,7.04015 15.03179,14.01559 22.56978,21.00315 6.71719,6.21571 13.39974,12.46286 20.01894,18.76686 3.37199,3.28783 6.89584,6.43777 10.35805,9.64408 2.18426,2.00525 4.35477,4.01477 6.30907,6.21322 l 12.63731,2.02563 v 0 c -1.97725,-2.27933 -4.22037,-4.31914 -6.48288,-6.35945 -3.45736,-3.2232 -6.84888,-6.50604 -10.39254,-9.65027 -6.85508,-6.22819 -13.65273,-12.50932 -20.41132,-18.82616 -7.52366,-7.01713 -15.03464,-14.04616 -22.61538,-21.0112 -10.02996,-9.24928 -20.06469,-18.4945 -30.03173,-27.80114 -8.60428,-8.09882 -13.04564,-11.59873 -21.46756,-19.85889 l -12.675,-1.91118 z"
       sodipodi:nodetypes="ccccccccscccccccc" />
    <path
       id="path10900"
       style="fill:#000000;stroke:#fdfdfd;stroke-width:21.0509;stroke-linecap:round;stroke-linejoin:round;stroke-miterlimit:0;stroke-dasharray:none;stroke-opacity:1;paint-order:stroke markers fill;stop-color:#000000"
       d="m 666.72674,56.390954 -46.88178,3.141529 c -10.51611,6.342276 -18.5721,15.654481 -26.64363,24.774847 -32.73143,36.82174 -65.88523,73.32637 -96.39449,112.0402 -6.29602,8.62011 -12.87703,17.04004 -18.88558,25.8631 -7.1345,10.47613 -15.73914,24.70657 -23.20116,37.50643 -3.81688,-18.89906 -8.75023,-37.53857 -15.89763,-55.60514 -2.36441,-6.13882 -4.55566,-12.34934 -7.09431,-18.41825 -10.8804,-26.00961 -24.33174,-50.88893 -36.29554,-76.39635 l -40.86945,23.45314 c 14.83547,23.731 27.89764,48.80907 38.5763,74.6996 2.47815,6.00827 4.62222,12.14759 6.93454,18.22156 13.08027,33.73623 18.81168,69.36134 22.96136,105.09961 0.50454,4.41093 1.00879,8.81879 1.51226,13.22964 l 40.1809,-21.11703 c -0.0955,-0.64634 -0.18528,-1.29084 -0.27721,-1.93648 1.5325,-4.01884 2.87095,-8.11863 4.61688,-12.04932 4.86458,-10.95323 15.73793,-31.94754 21.09863,-41.72388 8.16211,-14.88556 20.56703,-36.17632 30.02489,-50.1153 5.91876,-8.72301 12.43955,-17.02543 18.65797,-25.53714 31.03774,-38.9708 64.90987,-75.5846 99.03198,-111.849719 8.59096,-9.036562 17.12013,-18.456943 28.84457,-23.281047 z"
       ref="target2" />
    <g
       aria-label="Vérif ton doc"
       id="text10904"
       style="font-size:16.618px;line-height:1.25;text-align:center;text-anchor:middle;stroke:#000000;stroke-width:0.715;stroke-dasharray:none;stroke-opacity:1"
       transform="matrix(7.1262329,0,0,7.1262329,-1673.7626,-1030.6315)">
      <path
         d="m 262.18296,198.69376 q 0,-0.17851 0.1136,-0.21097 0.12982,-0.0487 0.25965,-0.0487 0.30834,0 0.568,0.35703 0.25966,0.35703 0.47063,0.84388 0.2272,0.47063 0.38948,0.95749 0.17852,0.47062 0.30834,0.73028 0.0487,0.0974 0.19475,0.40571 0.14605,0.30834 0.32457,0.73029 0.19474,0.42194 0.38948,0.89256 0.21097,0.4544 0.40571,0.87634 0.19475,0.42195 0.32457,0.74652 0.12983,0.30834 0.17852,0.40571 0.0974,-0.0974 0.19474,-0.4544 0.1136,-0.35703 0.2272,-0.87634 0.12983,-0.53554 0.24343,-1.15222 0.1136,-0.63292 0.2272,-1.26583 0.12982,-0.64914 0.25965,-1.23337 0.12983,-0.60045 0.25966,-1.05485 0.12983,-0.4544 0.24343,-0.69783 0.12982,-0.25965 0.25965,-0.21097 0.24343,-0.0649 0.3408,0.24343 0.0974,0.29212 0.0811,0.84388 -0.0162,0.53555 -0.12982,1.28206 -0.1136,0.74651 -0.30835,1.54171 -0.17851,0.77897 -0.42194,1.57416 -0.2272,0.7952 -0.50308,1.44434 -0.27589,0.64914 -0.55177,1.10354 -0.27589,0.4544 -0.53554,0.58423 -0.0325,0 -0.1136,-0.0162 -0.0811,0 -0.0974,0 -0.0811,-0.16229 -0.29212,-0.55177 -0.21097,-0.40572 -0.43817,-0.84389 -0.22719,-0.45439 -0.42194,-0.84388 -0.19474,-0.38948 -0.25965,-0.55177 -0.0974,-0.21097 -0.30834,-0.64914 -0.19475,-0.43817 -0.43817,-0.97371 -0.24343,-0.55177 -0.50309,-1.15222 -0.24343,-0.60046 -0.47063,-1.136 -0.21097,-0.55177 -0.34079,-0.97371 -0.12983,-0.43817 -0.12983,-0.66537 z"
         style="font-family:'Indie Flower';-inkscape-font-specification:'Indie Flower';stroke:#000000;stroke-width:0.715;stroke-dasharray:none;stroke-opacity:1"
         id="path11069" />
      <path
         d="m 269.19368,202.68598 q 0,-0.84389 0.24342,-1.60663 0.25966,-0.77897 0.73029,-1.36319 0.48685,-0.58423 1.16845,-0.92503 0.69783,-0.35703 1.60662,-0.35703 0.53554,0.0649 0.92503,0.29212 0.40571,0.2272 0.64914,0.568 0.25966,0.32457 0.37326,0.76274 0.0974,0.42194 0.0974,0.90879 0,0.58423 -0.3408,1.05486 -0.3408,0.47062 -0.86011,0.79519 -0.51932,0.30835 -1.11977,0.48686 -0.60046,0.16228 -1.11977,0.16228 -0.19474,0 -0.40571,0 -0.19474,0 -0.35703,-0.0649 -0.16228,-0.0649 -0.25966,-0.19474 -0.0974,-0.12983 -0.0974,-0.38949 0,-0.0811 0.0162,-0.12982 0.0325,-0.0649 0.14606,-0.0812 0.1136,-0.0324 0.3408,-0.0162 0.2272,0.0325 0.61668,0.0974 0.2272,0 0.64914,-0.14606 0.43817,-0.16229 0.87634,-0.40571 0.4544,-0.24343 0.77897,-0.55177 0.32457,-0.32457 0.32457,-0.63292 0,-0.32457 -0.1136,-0.63291 -0.0974,-0.32457 -0.30834,-0.568 -0.21097,-0.24342 -0.50309,-0.38948 -0.27588,-0.14606 -0.63291,-0.1136 -0.568,0.0487 -1.03862,0.30834 -0.4544,0.25966 -0.77897,0.6816 -0.32457,0.40571 -0.50308,0.9088 -0.17852,0.50308 -0.17852,1.05485 0,0.42194 0.0162,0.84388 0.0162,0.42194 0.1136,0.82766 0.1136,0.40571 0.3408,0.77897 0.24343,0.37325 0.6816,0.66536 0.45439,0.27589 1.13599,0.47063 0.6816,0.17852 1.68777,0.2272 l 2.9049,-0.19474 q -0.25965,0.35703 -0.66537,0.58423 -0.38948,0.22719 -0.84388,0.37325 -0.43817,0.12983 -0.87634,0.19474 -0.43817,0.0649 -0.82765,0.0649 -0.94126,0 -1.76891,-0.30834 -0.82766,-0.30835 -1.46057,-0.86012 -0.63291,-0.56799 -1.00617,-1.36319 -0.35702,-0.81143 -0.35702,-1.81759 z m 2.09347,-5.12822 q 0,-0.34079 0.25966,-0.64914 0.25966,-0.30834 0.61668,-0.58422 0.37326,-0.27589 0.76274,-0.51932 0.35703,-0.24342 0.61669,-0.43817 0.3408,0.16229 0.29211,0.38949 -0.0325,0.2272 -0.3408,0.53554 -0.29211,0.30834 -0.77897,0.71405 -0.48685,0.40572 -1.02239,0.94126 -0.24343,0 -0.32457,-0.0811 -0.0811,-0.0811 -0.0811,-0.30835 z"
         style="font-family:'Indie Flower';-inkscape-font-specification:'Indie Flower';stroke:#000000;stroke-width:0.715;stroke-dasharray:none;stroke-opacity:1"
         id="path11071" />
      <path
         d="m 279.23913,207.03522 q -0.35703,-0.64914 -0.61669,-1.41188 -0.25965,-0.76274 -0.43817,-1.54171 -0.17851,-0.77897 -0.29211,-1.50925 -0.0974,-0.74652 -0.12983,-1.34697 0,-0.1136 -0.0162,-0.24343 -0.0162,-0.14606 -0.0162,-0.29211 0.0162,-0.14606 0.0487,-0.27589 0.0487,-0.12983 0.14606,-0.2272 h 0.0324 q 0.0162,0 0.0162,0 0,-0.0162 0.0162,-0.0162 0.0162,0 0.0162,0.0162 0,0 0.0325,0 h 0.0324 q 0.0325,0.0162 0.16229,0.0649 0.12983,0.0487 0.16228,0.0811 0.29212,-0.0974 0.60046,-0.2272 0.30834,-0.14606 0.61668,-0.25966 0.32457,-0.12982 0.64914,-0.21097 0.32457,-0.0811 0.63292,-0.0811 0.22719,0 0.38948,0.0162 0.17851,0.0162 0.3408,0.0649 0.17851,0.0325 0.37325,0.0974 0.19475,0.0487 0.4544,0.12982 0.12983,0.0974 0.2272,0.19475 0.1136,0.0811 0.19474,0.19474 0.0974,0.1136 0.14606,0.27588 0.0487,0.16229 0.0487,0.42194 -0.25966,0.0325 -0.61669,-0.0325 -0.3408,-0.0812 -0.73028,-0.19475 -0.37326,-0.11359 -0.77897,-0.19474 -0.40571,-0.0811 -0.77897,-0.0649 -0.37325,0.0162 -0.69782,0.21097 -0.3408,0.16228 -0.60046,0.58423 -0.1136,0.47062 -0.0974,0.92502 0.0162,0.4544 0.1136,0.89257 0.0974,0.42194 0.24343,0.86011 0.16228,0.42194 0.29211,0.86011 0.14606,0.42194 0.25966,0.84388 0.1136,0.42195 0.14605,0.86012 0,0.16228 -0.17851,0.35702 -0.17851,0.17852 -0.40571,0.17852 z"
         style="font-family:'Indie Flower';-inkscape-font-specification:'Indie Flower';stroke:#000000;stroke-width:0.715;stroke-dasharray:none;stroke-opacity:1"
         id="path11073" />
      <path
         d="m 284.23751,201.42015 q 0,-0.0649 0,-0.24343 0,-0.17851 0,-0.37325 0.0162,-0.19474 0.0162,-0.37326 0,-0.17851 0,-0.24343 -0.0649,-0.50308 0.29211,-0.50308 0.16229,0 0.27589,0.0811 0.1136,0.0811 0.21097,0.24343 -0.0487,0.84388 0.0649,1.63908 0.12983,0.77897 0.27589,1.55794 0.16228,0.76274 0.29211,1.54171 0.14606,0.77897 0.14606,1.62285 0,0.2272 -0.14606,0.4544 -0.12983,0.2272 -0.40571,0.2272 -0.21097,0 -0.37326,-0.35703 -0.14606,-0.37326 -0.25966,-0.92503 -0.1136,-0.56799 -0.19474,-1.24959 -0.0811,-0.6816 -0.12983,-1.29828 -0.0324,-0.63292 -0.0487,-1.11977 -0.0162,-0.50309 -0.0162,-0.6816 z m -0.82765,-4.07336 q 0,-0.19474 0.1136,-0.24342 0.11359,-0.0649 0.29211,-0.0649 0.1136,-0.0162 0.29211,0.14606 0.19474,0.14605 0.30834,0.3408 0.12983,0.19474 0.14606,0.35702 0.0162,0.19475 -0.24343,0.2272 h -0.0811 q -0.24343,0 -0.40571,-0.0325 -0.16229,-0.0325 -0.25966,-0.0974 -0.0811,-0.0812 -0.12983,-0.2272 -0.0325,-0.14606 -0.0325,-0.40572 z"
         style="font-family:'Indie Flower';-inkscape-font-specification:'Indie Flower';stroke:#000000;stroke-width:0.715;stroke-dasharray:none;stroke-opacity:1"
         id="path11075" />
      <path
         d="m 291.60526,201.87455 q 0.3408,0 0.29211,0.32457 0.14606,0.17851 -0.0162,0.3408 -0.14605,0.14606 -0.50308,0.2272 -0.35703,0.0649 -0.89257,0.0649 -0.53554,-0.0162 -1.16845,-0.14605 0,0.61668 0.27588,1.15222 0.29211,0.53554 0.63291,1.0224 0.3408,0.48685 0.63292,0.94125 0.29211,0.4544 0.29211,0.9088 0,0.21097 -0.12983,0.27588 -0.0974,0.0649 -0.29211,0.0649 -0.16229,0 -0.35703,-0.1136 -0.17851,-0.12983 -0.3408,-0.30835 -0.14606,-0.17851 -0.27588,-0.37325 -0.1136,-0.19474 -0.17852,-0.32457 -0.0649,-0.12983 -0.19474,-0.37326 -0.1136,-0.24343 -0.27588,-0.568 -0.16229,-0.32457 -0.32457,-0.66536 -0.16229,-0.35703 -0.32458,-0.6816 -0.14605,-0.32457 -0.25965,-0.58423 -0.12983,-0.24343 -0.17851,-0.37325 l -0.17852,-0.17852 q -0.0811,0.0325 -0.30834,0.0811 -0.21097,0.0325 -0.4544,0.0811 -0.24343,0.0487 -0.47063,0.0974 -0.2272,0.0487 -0.32457,0.0487 h -0.0811 q -0.12983,0 -0.17851,-0.0811 -0.0487,-0.0974 -0.0487,-0.2272 0,-0.27588 0.19474,-0.42194 0.19475,-0.14606 0.47063,-0.21097 0.27589,-0.0649 0.568,-0.0811 0.30834,-0.0325 0.50308,-0.0487 -0.0325,-0.48685 -0.0487,-1.15222 -0.0162,-0.66537 0.0649,-1.37943 0.0811,-0.71405 0.25966,-1.39565 0.19474,-0.69783 0.53554,-1.2496 0.35703,-0.55176 0.89257,-0.89256 0.53554,-0.3408 1.31451,-0.3408 0.43817,0 0.95748,0.2272 0.51931,0.21097 0.95748,0.56799 0.4544,0.35703 0.74651,0.81143 0.29212,0.43817 0.29212,0.89257 h -0.37326 q -0.32457,0 -0.58423,-0.24343 -0.24342,-0.24343 -0.51931,-0.53554 -0.27588,-0.30834 -0.58422,-0.55177 -0.30835,-0.24343 -0.69783,-0.24343 -0.55177,0 -1.00617,0.24343 -0.4544,0.24343 -0.77897,0.64914 -0.32457,0.40571 -0.48685,0.9088 -0.16229,0.50308 -0.16229,1.02239 v 0.16229 l 0.29212,2.32068 q 0.0324,0.0324 0.17851,0.0649 0.14606,0.0162 0.4544,0.0649 0.32457,0.0324 0.84388,0.0811 0.53554,0.0487 1.34697,0.0974 z"
         style="font-family:'Indie Flower';-inkscape-font-specification:'Indie Flower';stroke:#000000;stroke-width:0.715;stroke-dasharray:none;stroke-opacity:1"
         id="path11077" />
      <path
         d="m 300.82305,201.45261 q -0.12982,0 -0.4544,0 -0.32457,0 -0.68159,-0.0487 -0.3408,-0.0649 -0.63291,-0.19474 -0.27589,-0.12983 -0.27589,-0.37326 0,-0.0649 0.0162,-0.17851 0.0325,-0.12983 0.16228,-0.12983 l 1.67154,-0.14605 q 0.0649,-0.60046 0.0974,-0.97372 0.0325,-0.38948 0.0162,-0.71405 -0.0162,-0.3408 -0.0487,-0.69783 -0.0162,-0.37325 -0.0325,-0.95748 0,-0.1136 0.0487,-0.17851 0.0487,-0.0649 0.1136,-0.0974 0.0811,-0.0325 0.16229,-0.0487 0.0974,-0.0162 0.14606,-0.0162 0.0974,0 0.19474,0.0649 0.1136,0.0649 0.19474,0.16228 0.0811,0.0974 0.12983,0.21097 0.0487,0.0974 0.0487,0.19474 l 0.12983,3.03474 1.39565,0.0649 q 0.27589,-0.0325 0.50309,0.1136 0.24343,0.12983 0.25965,0.50309 -0.19474,0.21097 -0.47062,0.25965 -0.27589,0.0325 -0.58423,0.0325 -0.29211,-0.0162 -0.58423,0 -0.29211,0 -0.51931,0.14605 0,0.0974 0.0162,0.53555 0.0162,0.43817 0.0325,1.03862 0.0162,0.60046 0.0325,1.28205 0.0325,0.6816 0.0487,1.26583 0.0162,0.568 0.0162,0.97371 0.0162,0.40571 0.0162,0.4544 -0.37326,0.2272 -0.60046,-0.0325 -0.2272,-0.27588 -0.37325,-0.7952 -0.12983,-0.53554 -0.19475,-1.23336 -0.0487,-0.71406 -0.0649,-1.39566 0,-0.69782 0.0162,-1.28205 0.0162,-0.58423 0.0487,-0.84388 z"
         style="font-family:'Indie Flower';-inkscape-font-specification:'Indie Flower';stroke:#000000;stroke-width:0.715;stroke-dasharray:none;stroke-opacity:1"
         id="path11079" />
      <path
         d="m 304.3771,203.7246 q 0,-0.89257 0.38948,-1.55794 0.38949,-0.66537 1.0224,-1.11976 0.63291,-0.4544 1.41188,-0.66537 0.7952,-0.2272 1.59039,-0.2272 0.42195,0 0.77897,0.16228 0.37326,0.14606 0.69783,0.42194 0.3408,0.25966 0.60045,0.61669 0.25966,0.3408 0.43817,0.71405 0.19475,0.37326 0.29212,0.76274 0.0974,0.37326 0.0974,0.73028 0,0.82766 -0.32457,1.4768 -0.32457,0.64914 -0.87634,1.10354 -0.55177,0.43817 -1.2496,0.6816 -0.69782,0.2272 -1.42811,0.2272 -0.74651,0 -1.37942,-0.2272 -0.61668,-0.24343 -1.08731,-0.66537 -0.4544,-0.42194 -0.71406,-1.03863 -0.25965,-0.63291 -0.25965,-1.39565 z m 0.7952,-0.12983 q 0,0.50309 0.17851,0.97371 0.19474,0.4544 0.51931,0.7952 0.3408,0.3408 0.7952,0.55177 0.4544,0.19474 0.97371,0.19474 0.27588,0.0325 0.66537,-0.0811 0.40571,-0.12983 0.7952,-0.35703 0.40571,-0.24343 0.76274,-0.568 0.37325,-0.34079 0.61668,-0.73028 0.24343,-0.40571 0.29211,-0.82765 0.0649,-0.43817 -0.14605,-0.86011 -0.19475,-0.43817 -0.73029,-0.82766 -0.53554,-0.40571 -1.47679,-0.74651 -0.53554,0 -1.11977,0.16228 -0.568,0.14606 -1.03862,0.4544 -0.47063,0.30834 -0.77897,0.77897 -0.30834,0.47063 -0.30834,1.08731 z"
         style="font-family:'Indie Flower';-inkscape-font-specification:'Indie Flower';stroke:#000000;stroke-width:0.715;stroke-dasharray:none;stroke-opacity:1"
         id="path11081" />
      <path
         d="m 312.63741,200.7061 q 0,-0.14606 0.0974,-0.17852 0.1136,-0.0487 0.24343,-0.0487 0.0974,0 0.12983,0.0487 0.0487,0.0487 0.0649,0.1136 0.0162,0.0649 0.0487,0.12983 0.0325,0.0487 0.1136,0.0487 0.2272,0 0.55177,-0.17852 0.32457,-0.17851 0.69782,-0.38948 0.38949,-0.21097 0.81143,-0.38949 0.43817,-0.17851 0.86011,-0.17851 0.55177,0 1.00617,0.29211 0.47062,0.27589 0.82765,0.74651 0.37326,0.47063 0.63291,1.05486 0.25966,0.58422 0.43817,1.20091 0.17852,0.60045 0.25966,1.18468 0.0811,0.568 0.0811,0.98994 0,0.14606 -0.0324,0.43817 -0.0162,0.29211 -0.0812,0.58423 -0.0487,0.29211 -0.17851,0.51931 -0.12983,0.21097 -0.32457,0.21097 -0.0325,0 -0.1136,0 -0.0811,-0.0162 -0.16229,-0.0325 -0.0811,-0.0324 -0.14605,-0.0649 -0.0487,-0.0325 -0.0487,-0.0974 0.14606,-1.2496 0,-2.33691 -0.14606,-1.10354 -0.47063,-1.93119 -0.32457,-0.82766 -0.79519,-1.31451 -0.47063,-0.48686 -1.00617,-0.48686 -0.50308,0 -0.94125,0.16229 -0.43817,0.16228 -0.76274,0.47062 -0.32458,0.30835 -0.51932,0.74652 -0.17851,0.43817 -0.17851,0.95748 0,0.51931 0.0974,1.03862 0.0974,0.50309 0.21097,1.0224 0.12983,0.50308 0.2272,1.0224 0.0974,0.51931 0.0974,1.03862 -0.4544,0 -0.76274,-0.37325 -0.30834,-0.37326 -0.50308,-0.95749 -0.17852,-0.58422 -0.29212,-1.31451 -0.0974,-0.73028 -0.14605,-1.42811 -0.0325,-0.71405 -0.0325,-1.33073 0,-0.63292 0,-0.98994 z"
         style="font-family:'Indie Flower';-inkscape-font-specification:'Indie Flower';stroke:#000000;stroke-width:0.715;stroke-dasharray:none;stroke-opacity:1"
         id="path11083" />
      <path
         d="m 326.35051,203.35134 q 0,-0.60045 0.14605,-1.26582 0.16229,-0.66537 0.48686,-1.23337 0.3408,-0.568 0.84388,-0.92502 0.51931,-0.37326 1.26583,-0.37326 0.38948,0 0.77896,0.1136 0.38949,0.1136 0.7952,0.32457 0.42194,0.21097 0.86011,0.50309 0.4544,0.27588 0.95749,0.61668 0.0649,-0.64914 -0.0487,-1.33074 -0.1136,-0.69783 -0.29211,-1.36319 -0.17852,-0.66537 -0.37326,-1.2496 -0.17851,-0.60046 -0.25966,-1.07108 -0.0811,-0.47063 -0.0162,-0.77897 0.0649,-0.30834 0.38948,-0.38949 0.43817,0.32457 0.74651,0.92503 0.32457,0.58423 0.55177,1.3632 0.2272,0.77896 0.37326,1.67153 0.14605,0.87634 0.24343,1.78514 0.0974,0.9088 0.14605,1.76891 0.0649,0.86011 0.12983,1.59039 0.0649,0.71406 0.1136,1.23337 0.0649,0.50308 0.17851,0.71405 0,0.25966 -0.19474,0.32457 -0.17851,0.0649 -0.37325,0.0649 -0.16229,0 -0.27589,-0.1136 -0.1136,-0.12983 -0.17851,-0.29211 -0.0649,-0.16229 -0.12983,-0.35703 -0.0487,-0.21097 -0.1136,-0.37326 -0.0649,-0.17851 -0.14606,-0.29211 -0.0811,-0.1136 -0.21097,-0.1136 -0.0325,0 -0.0974,0.0162 -0.0487,0 -0.0487,0.0162 -0.30834,0.42194 -0.73028,0.82765 -0.40571,0.38948 -0.9088,0.69783 -0.48685,0.29211 -1.03862,0.47062 -0.53554,0.17852 -1.08731,0.17852 -0.61668,0 -1.08731,-0.40572 -0.4544,-0.40571 -0.77897,-0.97371 -0.30834,-0.56799 -0.47063,-1.20091 -0.14605,-0.63291 -0.14605,-1.10354 z m 1.00616,0.29212 q 0.16229,0.58422 0.29212,1.02239 0.12983,0.43817 0.30834,0.71406 0.19474,0.27588 0.4544,0.42194 0.25965,0.12983 0.6816,0.12983 0.51931,0 1.10353,-0.29212 0.58423,-0.30834 1.08732,-0.77896 0.50308,-0.47063 0.82765,-1.0224 0.32457,-0.568 0.32457,-1.08731 0,-0.0487 0,-0.19474 0,-0.14606 0,-0.19475 -0.86011,-0.84388 -1.59039,-1.20091 -0.71406,-0.37325 -1.28206,-0.37325 -0.568,-0.0162 -0.98994,0.24343 -0.42194,0.25965 -0.69782,0.68159 -0.27589,0.42195 -0.40572,0.94126 -0.12982,0.51931 -0.1136,0.98994 z"
         style="font-family:'Indie Flower';-inkscape-font-specification:'Indie Flower';stroke:#000000;stroke-width:0.715;stroke-dasharray:none;stroke-opacity:1"
         id="path11085" />
      <path
         d="m 335.06522,203.7246 q 0,-0.89257 0.38948,-1.55794 0.38949,-0.66537 1.0224,-1.11976 0.63291,-0.4544 1.41188,-0.66537 0.7952,-0.2272 1.5904,-0.2272 0.42194,0 0.77897,0.16228 0.37325,0.14606 0.69782,0.42194 0.3408,0.25966 0.60046,0.61669 0.25965,0.3408 0.43817,0.71405 0.19474,0.37326 0.29211,0.76274 0.0974,0.37326 0.0974,0.73028 0,0.82766 -0.32457,1.4768 -0.32457,0.64914 -0.87634,1.10354 -0.55177,0.43817 -1.24959,0.6816 -0.69783,0.2272 -1.42811,0.2272 -0.74652,0 -1.37943,-0.2272 -0.61668,-0.24343 -1.08731,-0.66537 -0.4544,-0.42194 -0.71405,-1.03863 -0.25966,-0.63291 -0.25966,-1.39565 z m 0.7952,-0.12983 q 0,0.50309 0.17851,0.97371 0.19474,0.4544 0.51931,0.7952 0.3408,0.3408 0.7952,0.55177 0.4544,0.19474 0.97371,0.19474 0.27589,0.0325 0.66537,-0.0811 0.40571,-0.12983 0.7952,-0.35703 0.40571,-0.24343 0.76274,-0.568 0.37325,-0.34079 0.61668,-0.73028 0.24343,-0.40571 0.29212,-0.82765 0.0649,-0.43817 -0.14606,-0.86011 -0.19474,-0.43817 -0.73028,-0.82766 -0.53555,-0.40571 -1.4768,-0.74651 -0.53554,0 -1.11977,0.16228 -0.56799,0.14606 -1.03862,0.4544 -0.47063,0.30834 -0.77897,0.77897 -0.30834,0.47063 -0.30834,1.08731 z"
         style="font-family:'Indie Flower';-inkscape-font-specification:'Indie Flower';stroke:#000000;stroke-width:0.715;stroke-dasharray:none;stroke-opacity:1"
         id="path11087" />
      <path
         d="m 343.16325,203.41626 q 0,-0.71406 0.27589,-1.37943 0.27588,-0.68159 0.74651,-1.20091 0.48685,-0.51931 1.11976,-0.82765 0.63292,-0.30834 1.34697,-0.30834 0.32457,0 0.6816,0.0811 0.37325,0.0649 0.69783,0.2272 0.32457,0.16229 0.53554,0.43817 0.21097,0.25966 0.21097,0.66537 0,0.0649 -0.0487,0.25966 -0.0325,0.19474 -0.0974,0.38948 -0.0649,0.19474 -0.16228,0.35703 -0.0812,0.14605 -0.14606,0.14605 0,-0.76274 -0.42194,-1.26582 -0.42194,-0.51931 -1.23337,-0.51931 -0.61668,0 -1.10354,0.25965 -0.48685,0.25966 -0.81142,0.6816 -0.32458,0.42194 -0.50309,0.95748 -0.16228,0.51932 -0.16228,1.07109 0,0.74651 0.24342,1.23336 0.24343,0.48686 0.66537,0.7952 0.42194,0.29211 0.97371,0.43817 0.55177,0.14606 1.16846,0.19474 0.61668,0.0487 1.23336,0.0325 0.61669,-0.0162 1.18469,-0.0487 0.0487,0 0.16228,0.0649 0.1136,0.0649 0.16229,0.0811 v 0.0487 q 0,0.0324 0,0.0324 0.0162,0 0.0162,0.0162 0,0.17851 -0.17851,0.30834 -0.17851,0.12983 -0.43817,0.21097 -0.25966,0.0812 -0.568,0.1136 -0.30834,0.0325 -0.61668,0.0649 -0.29211,0.0162 -0.51931,0.0162 -0.2272,0 -0.32457,0 -0.94126,0 -1.704,-0.21097 -0.74651,-0.21098 -1.28205,-0.64915 -0.51931,-0.45439 -0.81143,-1.13599 -0.29211,-0.69783 -0.29211,-1.63908 z"
         style="font-family:'Indie Flower';-inkscape-font-specification:'Indie Flower';stroke:#000000;stroke-width:0.715;stroke-dasharray:none;stroke-opacity:1"
         id="path11089" />
    </g>
    <path
       style="fill:#000000;stroke-width:1.30278;stroke-linecap:round;stroke-linejoin:miter;stroke-miterlimit:0;stroke-dasharray:none;stop-color:#000000"
       id="path10906"
       d="m 734.04406,508.10169 c -21.04534,-0.29787 -36.25507,-0.64991 -57.28181,-1.3217 -21.05716,-0.82244 -42.13919,-1.58131 -63.195,-0.28505 -11.62937,0.7159 -20.08173,1.76695 -31.57898,3.01376 -20.08578,2.28509 -40.07444,4.95109 -60.31408,6.58599 -13.71522,1.10784 -19.33625,1.3185 -32.96816,2.04787 -16.21966,0.69837 -32.46334,1.31842 -48.72248,1.33616 -9.43122,0.0143 -15.70266,-0.13041 -25.14948,-0.28148 -24.24857,-0.92876 -48.53028,-1.22201 -72.80651,-1.63989 -17.43675,-0.30215 -34.8797,-0.2031 -52.3017,-0.82536 -2.4887,-0.1354 -6.1746,-0.26652 -8.72942,-0.63424 -2.08813,-0.30072 -5.32373,-1.12751 -7.25793,-1.58608 -5.68089,-1.34679 -2.34745,-0.53732 -7.7723,-1.87627 l -18.87226,8.51314 v 0 c 2.59074,0.62925 5.20094,1.22244 7.78634,1.86123 1.01513,0.25085 6.33023,1.67859 7.50385,1.86914 2.51314,0.40833 6.81125,0.4853 9.21664,0.58079 17.66429,0.42971 35.33892,0.44539 53.01262,0.52877 24.32931,0.20452 48.6329,0.81452 72.93749,1.56499 5.01338,0.0919 19.92887,0.38339 25.02612,0.40619 16.51205,0.0748 32.9956,-0.72844 49.44829,-1.57062 16.29349,-0.88999 32.58513,-1.74657 48.77422,-3.31156 10.75719,-1.03979 18.50397,-2.11492 29.22361,-3.40256 5.10815,-0.61357 10.22329,-1.20084 15.33501,-1.8013 10.90599,-1.22429 20.51472,-2.42634 31.53722,-3.16398 20.88171,-1.39745 41.78659,-0.62639 62.66688,0.33708 4.49038,0.17886 8.97805,0.3898 13.471,0.53589 16.07564,0.52235 32.20637,0.47817 48.23426,1.56478 6.20289,-3.0154 6.57395,-6.03008 12.77656,-9.04569 z"
       sodipodi:nodetypes="ccscscccccssccssscccccsscscscc" />
    <path
       style="fill:#000000;stroke-width:0.878714;stroke-linecap:round;stroke-linejoin:miter;stroke-miterlimit:0;stroke-dasharray:none;stop-color:#000000"
       id="path10908"
       d="m 723.84157,468.50799 c -0.96767,12.94594 -2.25331,25.88333 -2.8252,38.84132 0.0791,3.18906 -0.2373,6.52021 0.99376,9.645 0.27721,0.70478 1.00138,1.85666 1.41641,2.54883 0,0 13.40736,-5.10651 13.40736,-5.10651 v 0 c -0.55014,-0.88565 -0.92968,-1.42575 -1.32355,-2.36263 -1.25372,-2.98233 -1.33446,-6.13376 -1.5258,-9.20524 -0.14822,-12.97737 0.7407,-25.97455 3.13398,-38.85557 0,0 -13.27696,4.4948 -13.27696,4.4948 z" />
    <path
       style="fill:#000000;stroke-width:0.878714;stroke-linecap:round;stroke-linejoin:miter;stroke-miterlimit:0;stroke-dasharray:none;stop-color:#000000"
       id="path10910"
       d="m 260.94485,506.21609 c 0.96768,-12.94594 2.25332,-25.8834 2.8252,-38.84139 -0.0791,-3.18899 0.2373,-6.52014 -0.99375,-9.645 -0.27721,-0.70478 -1.00138,-1.85667 -1.41641,-2.54884 0,0 -13.40737,5.10652 -13.40737,5.10652 v 0 c 0.55015,0.88572 0.92969,1.42574 1.32356,2.3627 1.25371,2.98233 1.33445,6.13369 1.52579,9.20524 0.14823,12.97737 -0.7407,25.97455 -3.13397,38.85557 0,0 13.27695,-4.4948 13.27695,-4.4948 z" />
    <g
       transform="matrix(0.74932811,0,0,0.74932811,540.45629,-227.82168)"
       id="g3000"
       ref="target3">
      <path
         d="M 83.875,810.02 C 43.617,810.02 11,842.637 11,882.895 c 0,40.258 32.617,72.875 72.875,72.875 13.272,0 25.717,-3.5553 36.438,-9.75 3.3047,3.0396 7.6874,4.9375 12.531,4.9375 1.9922,0 3.9192,-0.3244 5.7188,-0.9063 l 11.781,11.781 c 0.0921,2.5836 1.0408,4.9603 2.5938,6.8125 l -2.3438,2.3438 67.844,67.844 2.6563,-2.6562 c 2.0043,1.9184 4.7252,3.125 7.7188,3.125 6.164,0 11.156,-5.0235 11.156,-11.188 0,-3.0019 -1.1971,-5.7128 -3.125,-7.7188 l 2.5,-2.5 -67.812,-67.812 -2.8438,2.8125 c -1.9118,-1.6085 -4.3813,-2.5884 -7.0625,-2.625 l -11.375,-11.375 c 0.7581,-2.0246 1.1563,-4.2123 1.1563,-6.5 0,-4.767 -1.8583,-9.0573 -4.8125,-12.344 6.466,-10.881 10.188,-23.58 10.188,-37.156 0,-40.258 -32.648,-72.875 -72.906,-72.875 z m 0,5.9688 c 5.4454,0.0123 10.902,0.692 16.188,2 25.903,6.0255 46.397,28.998 50.062,55.25 4.1167,25.725 -8.7369,52.824 -30.812,66.469 -23.188,14.994 -55.437,12.954 -76.906,-4.25 -20.58,-15.851 -29.952,-44.236 -23.375,-69.281 6.9621,-28.849 35.176,-50.684 64.844,-50.188 z m 61.594,105.88 c -0.3649,0.607 -0.7284,1.1946 -1.125,1.7813 -0.7844,1.1602 -1.6238,2.2908 -2.4688,3.4063 -0.567,0.7485 -1.1219,1.4961 -1.7188,2.2188 -0.7431,0.8998 -1.5248,1.767 -2.3125,2.625 1.413,-1.5537 2.7608,-3.1696 4.0313,-4.8438 1.2705,-1.6742 2.4636,-3.4065 3.5938,-5.1875 z"
         fill-rule="evenodd"
         filter="url(#q)"
         id="path2970"
         style="filter:url(#q-3)" />
      <path
         transform="rotate(45)"
         d="m 763.72,557.65 h 26.098 v 16.163 H 763.72 Z"
         fill="url(#n)"
         fill-rule="evenodd"
         id="path2972"
         style="fill:url(#n-6)" />
      <path
         d="m 83.874,815.99 c -29.668,-0.4962 -57.869,21.347 -64.831,50.196 -6.5766,25.045 2.769,53.435 23.349,69.286 21.47,17.204 53.745,19.232 76.933,4.2375 22.076,-13.645 34.933,-40.742 30.816,-66.467 -3.6651,-26.252 -24.189,-49.238 -50.092,-55.263 -5.286,-1.308 -10.73,-1.9771 -16.175,-1.9894 z"
         fill="url(#h)"
         fill-rule="evenodd"
         opacity="0.404"
         id="path2974"
         style="fill:url(#radialGradient2778)" />
      <path
         d="m 83.8738,810.0184 c -40.2578,0 -72.8814,32.6236 -72.8814,72.8814 0,40.2578 32.6236,72.8814 72.8814,72.8814 40.2578,0 72.9185,-32.6236 72.9185,-72.8814 0,-40.2578 -32.6607,-72.8814 -72.9185,-72.8814 z m 0,5.9684 c 2.3093,0 4.6091,0.1423 6.8581,0.3707 2.249,0.2284 4.4581,0.5553 6.6357,1.0009 2.1776,0.4456 4.3184,1.0166 6.4133,1.6682 2.0949,0.6516 4.1528,1.3779 6.1538,2.2243 2.001,0.8464 3.9242,1.7875 5.8201,2.8174 1.8959,1.0299 3.744,2.1712 5.5236,3.3735 1.7796,1.2023 3.5008,2.492 5.1529,3.8554 1.6521,1.3634 3.2317,2.7869 4.7451,4.3002 1.5134,1.5133 2.9739,3.093 4.3373,4.7451 1.3634,1.6521 2.6531,3.3733 3.8554,5.1529 1.2023,1.7796 2.3065,3.6277 3.3364,5.5236 1.0299,1.8959 1.971,3.8562 2.8174,5.8572 0.8464,2.001 1.6098,4.0218 2.2613,6.1167 0.6515,2.0949 1.1855,4.2357 1.6311,6.4133 0.4456,2.1776 0.8096,4.4237 1.038,6.6728 0.2284,2.2491 0.3336,4.5118 0.3336,6.821 0,2.3092 -0.1052,4.6091 -0.3336,6.8581 -0.2284,2.249 -0.5924,4.4581 -1.038,6.6357 -0.4456,2.1776 -0.9795,4.3184 -1.6311,6.4133 -0.6516,2.0949 -1.415,4.1528 -2.2613,6.1538 -0.8463,2.001 -1.7875,3.9242 -2.8174,5.8201 -1.0299,1.8959 -2.1341,3.744 -3.3364,5.5236 -1.2023,1.7796 -2.492,3.5008 -3.8554,5.1528 -1.3634,1.652 -2.824,3.2317 -4.3373,4.7451 -1.5133,1.5134 -3.093,2.9739 -4.7451,4.3373 -1.6521,1.3634 -3.3733,2.6531 -5.1529,3.8554 -1.7796,1.2023 -3.6277,2.3065 -5.5236,3.3364 -1.8959,1.0299 -3.8191,1.971 -5.8201,2.8174 -2.001,0.8464 -4.0589,1.6098 -6.1538,2.2613 -2.0949,0.6515 -4.2357,1.1855 -6.4133,1.6311 -2.1776,0.4456 -4.3867,0.8096 -6.6357,1.038 -2.249,0.2284 -4.5488,0.3336 -6.8581,0.3336 -2.3093,0 -4.572,-0.1052 -6.821,-0.3336 -2.249,-0.2284 -4.4952,-0.5924 -6.6728,-1.038 -2.1776,-0.4456 -4.2813,-0.9795 -6.3762,-1.6311 -2.0949,-0.6516 -4.1528,-1.415 -6.1538,-2.2613 -2.001,-0.8463 -3.9613,-1.7875 -5.8572,-2.8174 -1.8959,-1.0299 -3.744,-2.1341 -5.5236,-3.3364 -1.7796,-1.2023 -3.5008,-2.492 -5.1529,-3.8554 -1.6521,-1.3634 -3.2317,-2.824 -4.7451,-4.3373 -1.5134,-1.5133 -2.9368,-3.093 -4.3002,-4.7451 -1.3634,-1.6521 -2.6531,-3.3733 -3.8554,-5.1528 -1.2023,-1.7795 -2.3435,-3.6277 -3.3735,-5.5236 -1.03,-1.8959 -1.971,-3.8191 -2.8174,-5.8201 -0.8464,-2.001 -1.5727,-4.0589 -2.2243,-6.1538 -0.6516,-2.0949 -1.2226,-4.2357 -1.6682,-6.4133 -0.4456,-2.1776 -0.7725,-4.3867 -1.0009,-6.6357 -0.2284,-2.249 -0.3336,-4.5488 -0.3336,-6.8581 0,-2.3093 0.1052,-4.572 0.3336,-6.821 0.2284,-2.249 0.5553,-4.4952 1.0009,-6.6728 0.4456,-2.1776 1.0166,-4.3184 1.6682,-6.4133 0.6516,-2.0949 1.3779,-4.1157 2.2243,-6.1167 0.8464,-2.001 1.7875,-3.9613 2.8174,-5.8572 1.0299,-1.8959 2.1712,-3.744 3.3735,-5.5236 1.2023,-1.7796 2.492,-3.5008 3.8554,-5.1529 1.3634,-1.6521 2.7869,-3.2317 4.3002,-4.7451 1.5133,-1.5134 3.093,-2.9368 4.7451,-4.3002 1.6521,-1.3634 3.3733,-2.6531 5.1529,-3.8554 1.7796,-1.2023 3.6277,-2.3435 5.5236,-3.3735 1.8959,-1.03 3.8562,-1.971 5.8572,-2.8174 2.001,-0.8464 4.0589,-1.5727 6.1538,-2.2243 2.0949,-0.6516 4.1986,-1.2226 6.3762,-1.6682 2.1776,-0.4456 4.4237,-0.7725 6.6728,-1.0009 2.2491,-0.2284 4.5118,-0.3707 6.821,-0.3707 z"
         fill="url(#m)"
         fill-rule="evenodd"
         id="path2976"
         style="fill:url(#linearGradient2780)" />
      <path
         d="m 120.28,945.99 c 3.3084,3.057 7.7073,4.9675 12.567,4.9675 10.25,0 18.572,-8.3227 18.572,-18.572 0,-4.7828 -1.885,-9.0911 -4.8563,-12.382 -0.7254,1.2207 -1.431,2.4596 -2.2243,3.633 -1.3107,1.9386 -2.7027,3.8351 -4.189,5.6348 -1.4863,1.7997 -3.0583,3.5043 -4.708,5.1529 -1.6497,1.6486 -3.3891,3.2228 -5.1899,4.708 -1.8008,1.4852 -3.658,2.8794 -5.5977,4.189 -1.406,0.9492 -2.901,1.8176 -4.3744,2.6691 z"
         fill="url(#l)"
         fill-rule="evenodd"
         id="path2978"
         style="fill:url(#l)" />
      <g
         transform="matrix(1.1863,0,0,1.1863,-19.814,-165.12)"
         id="g2992">
        <g
           mask="url(#b-5)"
           id="g2984">
          <g
             mask="url(#c-5)"
             opacity="0.788"
             id="g2982">
            <path
               d="m 84.094,829.08 c -25.153,1.2433 -47.92,22.016 -50.625,47.25 12.099,10.751 30.812,16.083 45.25,6.8438 8.6561,-5.6183 15.868,-14.308 26.688,-15.719 12.909,-2.4273 25.778,3.0259 36.156,10.312 -2.2755,-26.836 -27.239,-49.438 -54.188,-48.719 -1.0937,0.0112 -2.1883,-0.0277 -3.2813,0.0312 z"
               fill="#ffffff"
               fill-rule="evenodd"
               mask="url(#d)"
               id="path2980" />
          </g>
        </g>
        <g
           mask="url(#b-5)"
           id="g2990">
          <g
             mask="url(#c-5)"
             opacity="0.788"
             id="g2988">
            <path
               d="m 84.094,829.08 c -25.153,1.2433 -47.92,22.016 -50.625,47.25 12.099,10.751 30.812,16.083 45.25,6.8438 8.6561,-5.6183 15.868,-14.308 26.688,-15.719 12.909,-2.4273 25.778,3.0259 36.156,10.312 -2.2755,-26.836 -27.239,-49.438 -54.188,-48.719 -1.0937,0.0112 -2.1883,-0.0277 -3.2813,0.0312 z"
               fill="#ffffff"
               fill-rule="evenodd"
               mask="url(#d)"
               id="path2986" />
          </g>
        </g>
      </g>
      <path
         transform="matrix(1.035,0,0,1.035,2.3041,801.68)"
         d="m 164.58,154.35 c 0,5.9555 -4.8279,10.783 -10.783,10.783 -5.9551,0 -10.783,-4.8279 -10.783,-10.783 0,-5.9551 4.8279,-10.783 10.783,-10.783 5.9551,0 10.783,4.8279 10.783,10.783 z"
         fill="url(#g)"
         fill-rule="evenodd"
         id="path2994"
         style="fill:url(#g-9)" />
      <path
         transform="matrix(1.035,0,0,1.035,69.619,868.37)"
         d="m 164.58,154.35 c 0,5.9555 -4.8279,10.783 -10.783,10.783 -5.9551,0 -10.783,-4.8279 -10.783,-10.783 0,-5.9551 4.8279,-10.783 10.783,-10.783 5.9551,0 10.783,4.8279 10.783,10.783 z"
         fill="url(#k)"
         fill-rule="evenodd"
         id="path2996"
         style="fill:url(#k-1)" />
      <path
         transform="rotate(45)"
         d="m 793.08,550.52 h 95.93 v 29.584 h -95.93 z"
         fill="url(#j)"
         fill-rule="evenodd"
         id="path2998"
         style="fill:url(#linearGradient2782)" />
    </g>
    <g
       transform="matrix(-0.74932811,0,0,0.74932811,397.46458,-472.82402)"
       id="g2762"
       ref="target4">
      <path
         d="M 83.875,810.02 C 43.617,810.02 11,842.637 11,882.895 c 0,40.258 32.617,72.875 72.875,72.875 13.272,0 25.717,-3.5553 36.438,-9.75 3.3047,3.0396 7.6874,4.9375 12.531,4.9375 1.9922,0 3.9192,-0.3244 5.7188,-0.9063 l 11.781,11.781 c 0.0921,2.5836 1.0408,4.9603 2.5938,6.8125 l -2.3438,2.3438 67.844,67.844 2.6563,-2.6562 c 2.0043,1.9184 4.7252,3.125 7.7188,3.125 6.164,0 11.156,-5.0235 11.156,-11.188 0,-3.0019 -1.1971,-5.7128 -3.125,-7.7188 l 2.5,-2.5 -67.812,-67.812 -2.8438,2.8125 c -1.9118,-1.6085 -4.3813,-2.5884 -7.0625,-2.625 l -11.375,-11.375 c 0.7581,-2.0246 1.1563,-4.2123 1.1563,-6.5 0,-4.767 -1.8583,-9.0573 -4.8125,-12.344 6.466,-10.881 10.188,-23.58 10.188,-37.156 0,-40.258 -32.648,-72.875 -72.906,-72.875 z m 0,5.9688 c 5.4454,0.0123 10.902,0.692 16.188,2 25.903,6.0255 46.397,28.998 50.062,55.25 4.1167,25.725 -8.7369,52.824 -30.812,66.469 -23.188,14.994 -55.437,12.954 -76.906,-4.25 -20.58,-15.851 -29.952,-44.236 -23.375,-69.281 6.9621,-28.849 35.176,-50.684 64.844,-50.188 z m 61.594,105.88 c -0.3649,0.607 -0.7284,1.1946 -1.125,1.7813 -0.7844,1.1602 -1.6238,2.2908 -2.4688,3.4063 -0.567,0.7485 -1.1219,1.4961 -1.7188,2.2188 -0.7431,0.8998 -1.5248,1.767 -2.3125,2.625 1.413,-1.5537 2.7608,-3.1696 4.0313,-4.8438 1.2705,-1.6742 2.4636,-3.4065 3.5938,-5.1875 z"
         fill-rule="evenodd"
         filter="url(#q)"
         id="path2732"
         style="filter:url(#q-3)" />
      <path
         transform="rotate(45)"
         d="m 763.72,557.65 h 26.098 v 16.163 H 763.72 Z"
         fill="url(#n)"
         fill-rule="evenodd"
         id="path2734"
         style="fill:url(#linearGradient2764)" />
      <path
         d="m 83.874,815.99 c -29.668,-0.4962 -57.869,21.347 -64.831,50.196 -6.5766,25.045 2.769,53.435 23.349,69.286 21.47,17.204 53.745,19.232 76.933,4.2375 22.076,-13.645 34.933,-40.742 30.816,-66.467 -3.6651,-26.252 -24.189,-49.238 -50.092,-55.263 -5.286,-1.308 -10.73,-1.9771 -16.175,-1.9894 z"
         fill="url(#h)"
         fill-rule="evenodd"
         opacity="0.404"
         id="path2736"
         style="fill:url(#radialGradient2766)" />
      <path
         d="m 83.8738,810.0184 c -40.2578,0 -72.8814,32.6236 -72.8814,72.8814 0,40.2578 32.6236,72.8814 72.8814,72.8814 40.2578,0 72.9185,-32.6236 72.9185,-72.8814 0,-40.2578 -32.6607,-72.8814 -72.9185,-72.8814 z m 0,5.9684 c 2.3093,0 4.6091,0.1423 6.8581,0.3707 2.249,0.2284 4.4581,0.5553 6.6357,1.0009 2.1776,0.4456 4.3184,1.0166 6.4133,1.6682 2.0949,0.6516 4.1528,1.3779 6.1538,2.2243 2.001,0.8464 3.9242,1.7875 5.8201,2.8174 1.8959,1.0299 3.744,2.1712 5.5236,3.3735 1.7796,1.2023 3.5008,2.492 5.1529,3.8554 1.6521,1.3634 3.2317,2.7869 4.7451,4.3002 1.5134,1.5133 2.9739,3.093 4.3373,4.7451 1.3634,1.6521 2.6531,3.3733 3.8554,5.1529 1.2023,1.7796 2.3065,3.6277 3.3364,5.5236 1.0299,1.8959 1.971,3.8562 2.8174,5.8572 0.8464,2.001 1.6098,4.0218 2.2613,6.1167 0.6515,2.0949 1.1855,4.2357 1.6311,6.4133 0.4456,2.1776 0.8096,4.4237 1.038,6.6728 0.2284,2.2491 0.3336,4.5118 0.3336,6.821 0,2.3092 -0.1052,4.6091 -0.3336,6.8581 -0.2284,2.249 -0.5924,4.4581 -1.038,6.6357 -0.4456,2.1776 -0.9795,4.3184 -1.6311,6.4133 -0.6516,2.0949 -1.415,4.1528 -2.2613,6.1538 -0.8463,2.001 -1.7875,3.9242 -2.8174,5.8201 -1.0299,1.8959 -2.1341,3.744 -3.3364,5.5236 -1.2023,1.7796 -2.492,3.5008 -3.8554,5.1528 -1.3634,1.652 -2.824,3.2317 -4.3373,4.7451 -1.5133,1.5134 -3.093,2.9739 -4.7451,4.3373 -1.6521,1.3634 -3.3733,2.6531 -5.1529,3.8554 -1.7796,1.2023 -3.6277,2.3065 -5.5236,3.3364 -1.8959,1.0299 -3.8191,1.971 -5.8201,2.8174 -2.001,0.8464 -4.0589,1.6098 -6.1538,2.2613 -2.0949,0.6515 -4.2357,1.1855 -6.4133,1.6311 -2.1776,0.4456 -4.3867,0.8096 -6.6357,1.038 -2.249,0.2284 -4.5488,0.3336 -6.8581,0.3336 -2.3093,0 -4.572,-0.1052 -6.821,-0.3336 -2.249,-0.2284 -4.4952,-0.5924 -6.6728,-1.038 -2.1776,-0.4456 -4.2813,-0.9795 -6.3762,-1.6311 -2.0949,-0.6516 -4.1528,-1.415 -6.1538,-2.2613 -2.001,-0.8463 -3.9613,-1.7875 -5.8572,-2.8174 -1.8959,-1.0299 -3.744,-2.1341 -5.5236,-3.3364 -1.7796,-1.2023 -3.5008,-2.492 -5.1529,-3.8554 -1.6521,-1.3634 -3.2317,-2.824 -4.7451,-4.3373 -1.5134,-1.5133 -2.9368,-3.093 -4.3002,-4.7451 -1.3634,-1.6521 -2.6531,-3.3733 -3.8554,-5.1528 -1.2023,-1.7795 -2.3435,-3.6277 -3.3735,-5.5236 -1.03,-1.8959 -1.971,-3.8191 -2.8174,-5.8201 -0.8464,-2.001 -1.5727,-4.0589 -2.2243,-6.1538 -0.6516,-2.0949 -1.2226,-4.2357 -1.6682,-6.4133 -0.4456,-2.1776 -0.7725,-4.3867 -1.0009,-6.6357 -0.2284,-2.249 -0.3336,-4.5488 -0.3336,-6.8581 0,-2.3093 0.1052,-4.572 0.3336,-6.821 0.2284,-2.249 0.5553,-4.4952 1.0009,-6.6728 0.4456,-2.1776 1.0166,-4.3184 1.6682,-6.4133 0.6516,-2.0949 1.3779,-4.1157 2.2243,-6.1167 0.8464,-2.001 1.7875,-3.9613 2.8174,-5.8572 1.0299,-1.8959 2.1712,-3.744 3.3735,-5.5236 1.2023,-1.7796 2.492,-3.5008 3.8554,-5.1529 1.3634,-1.6521 2.7869,-3.2317 4.3002,-4.7451 1.5133,-1.5134 3.093,-2.9368 4.7451,-4.3002 1.6521,-1.3634 3.3733,-2.6531 5.1529,-3.8554 1.7796,-1.2023 3.6277,-2.3435 5.5236,-3.3735 1.8959,-1.03 3.8562,-1.971 5.8572,-2.8174 2.001,-0.8464 4.0589,-1.5727 6.1538,-2.2243 2.0949,-0.6516 4.1986,-1.2226 6.3762,-1.6682 2.1776,-0.4456 4.4237,-0.7725 6.6728,-1.0009 2.2491,-0.2284 4.5118,-0.3707 6.821,-0.3707 z"
         fill="url(#m)"
         fill-rule="evenodd"
         id="path2738"
         style="fill:url(#linearGradient2768)" />
      <path
         d="m 120.28,945.99 c 3.3084,3.057 7.7073,4.9675 12.567,4.9675 10.25,0 18.572,-8.3227 18.572,-18.572 0,-4.7828 -1.885,-9.0911 -4.8563,-12.382 -0.7254,1.2207 -1.431,2.4596 -2.2243,3.633 -1.3107,1.9386 -2.7027,3.8351 -4.189,5.6348 -1.4863,1.7997 -3.0583,3.5043 -4.708,5.1529 -1.6497,1.6486 -3.3891,3.2228 -5.1899,4.708 -1.8008,1.4852 -3.658,2.8794 -5.5977,4.189 -1.406,0.9492 -2.901,1.8176 -4.3744,2.6691 z"
         fill="url(#l)"
         fill-rule="evenodd"
         id="path2740"
         style="fill:url(#linearGradient2770)" />
      <g
         transform="matrix(1.1863,0,0,1.1863,-19.814,-165.12)"
         id="g2754">
        <g
           mask="url(#b-5)"
           id="g2746">
          <g
             mask="url(#c-5)"
             opacity="0.788"
             id="g2744">
            <path
               d="m 84.094,829.08 c -25.153,1.2433 -47.92,22.016 -50.625,47.25 12.099,10.751 30.812,16.083 45.25,6.8438 8.6561,-5.6183 15.868,-14.308 26.688,-15.719 12.909,-2.4273 25.778,3.0259 36.156,10.312 -2.2755,-26.836 -27.239,-49.438 -54.188,-48.719 -1.0937,0.0112 -2.1883,-0.0277 -3.2813,0.0312 z"
               fill="#ffffff"
               fill-rule="evenodd"
               mask="url(#d)"
               id="path2742" />
          </g>
        </g>
        <g
           mask="url(#b-5)"
           id="g2752">
          <g
             mask="url(#c-5)"
             opacity="0.788"
             id="g2750">
            <path
               d="m 84.094,829.08 c -25.153,1.2433 -47.92,22.016 -50.625,47.25 12.099,10.751 30.812,16.083 45.25,6.8438 8.6561,-5.6183 15.868,-14.308 26.688,-15.719 12.909,-2.4273 25.778,3.0259 36.156,10.312 -2.2755,-26.836 -27.239,-49.438 -54.188,-48.719 -1.0937,0.0112 -2.1883,-0.0277 -3.2813,0.0312 z"
               fill="#ffffff"
               fill-rule="evenodd"
               mask="url(#d)"
               id="path2748" />
          </g>
        </g>
      </g>
      <path
         transform="matrix(1.035,0,0,1.035,2.3041,801.68)"
         d="m 164.58,154.35 c 0,5.9555 -4.8279,10.783 -10.783,10.783 -5.9551,0 -10.783,-4.8279 -10.783,-10.783 0,-5.9551 4.8279,-10.783 10.783,-10.783 5.9551,0 10.783,4.8279 10.783,10.783 z"
         fill="url(#g)"
         fill-rule="evenodd"
         id="path2756"
         style="fill:url(#radialGradient2772)" />
      <path
         transform="matrix(1.035,0,0,1.035,69.619,868.37)"
         d="m 164.58,154.35 c 0,5.9555 -4.8279,10.783 -10.783,10.783 -5.9551,0 -10.783,-4.8279 -10.783,-10.783 0,-5.9551 4.8279,-10.783 10.783,-10.783 5.9551,0 10.783,4.8279 10.783,10.783 z"
         fill="url(#k)"
         fill-rule="evenodd"
         id="path2758"
         style="fill:url(#linearGradient2774)" />
      <path
         transform="rotate(45)"
         d="m 793.08,550.52 h 95.93 v 29.584 h -95.93 z"
         fill="url(#j)"
         fill-rule="evenodd"
         id="path2760"
         style="fill:url(#linearGradient2776)" />
    </g>
  </g>
</svg>
