<?xml version="1.0" encoding="UTF-8" standalone="no"?>
<!-- Created with Inkscape (http://www.inkscape.org/) -->

<svg
   width="3840"
   height="2160"
   viewBox="0 0 1016 571.5"
   version="1.1"
   id="svg189"
   inkscape:version="1.2.1 (0f2f062aeb, 2022-09-21, custom)"
   sodipodi:docname="a5.svg"
   xmlns:inkscape="http://www.inkscape.org/namespaces/inkscape"
   xmlns:sodipodi="http://sodipodi.sourceforge.net/DTD/sodipodi-0.dtd"
   xmlns:xlink="http://www.w3.org/1999/xlink"
   xmlns="http://www.w3.org/2000/svg"
   xmlns:svg="http://www.w3.org/2000/svg">
  <sodipodi:namedview
     id="namedview191"
     pagecolor="#505050"
     bordercolor="#ffffff"
     borderopacity="1"
     inkscape:showpageshadow="0"
     inkscape:pageopacity="0"
     inkscape:pagecheckerboard="1"
     inkscape:deskcolor="#505050"
     inkscape:document-units="px"
     showgrid="false"
     inkscape:zoom="0.42870938"
     inkscape:cx="1172.1227"
     inkscape:cy="1330.7383"
     inkscape:window-width="1868"
     inkscape:window-height="1016"
     inkscape:window-x="52"
     inkscape:window-y="27"
     inkscape:window-maximized="1"
     inkscape:current-layer="layer1" />
  <defs
     id="defs186">
    <linearGradient
       gradientUnits="userSpaceOnUse"
       y2="503.67999"
       y1="507.29999"
       x2="262.79999"
       x1="213.66"
       id="p">
      <stop
         id="stop3654"
         offset="0"
         stop-color="#e6e6e6" />
      <stop
         id="stop3656"
         offset="1"
         stop-opacity="0"
         stop-color="#e6e6e6" />
    </linearGradient>
    <linearGradient
       xlink:href="#i"
       gradientUnits="userSpaceOnUse"
       y2="713.84998"
       y1="738.84998"
       x2="411.92999"
       x1="621.54999"
       id="o" />
    <linearGradient
       id="i">
      <stop
         id="stop3644"
         offset="0"
         stop-color="#ccc" />
      <stop
         id="stop3646"
         offset="1"
         stop-opacity="0"
         stop-color="#ccc" />
    </linearGradient>
    <linearGradient
       xlink:href="#i"
       gradientUnits="userSpaceOnUse"
       y2="322.39001"
       y1="360.22"
       x2="436.89001"
       x1="661.66998"
       id="q" />
    <filter
       id="j"
       x="-0.046306349"
       y="-0.030907832"
       width="1.0926183"
       height="1.0618101">
      <feGaussianBlur
         id="feGaussianBlur3610"
         stdDeviation="2.71542" />
    </filter>
    <filter
       id="filter966"
       x="-0.046306349"
       y="-0.030907832"
       width="1.0926183"
       height="1.0618101">
      <feGaussianBlur
         id="feGaussianBlur964"
         stdDeviation="2.71542" />
    </filter>
    <linearGradient
       xlink:href="#g"
       gradientUnits="userSpaceOnUse"
       y2="834.88"
       y1="887.91998"
       x2="466.92999"
       x1="394.73001"
       id="k" />
    <linearGradient
       id="g">
      <stop
         id="stop3634"
         offset="0" />
      <stop
         id="stop3636"
         offset="1"
         stop-opacity="0" />
    </linearGradient>
    <linearGradient
       xlink:href="#g"
       gradientUnits="userSpaceOnUse"
       y2="422.57999"
       y1="495.62"
       x2="291.48001"
       x1="296.94"
       id="n" />
    <filter
       id="s"
       x="-0.044527929"
       y="-0.053420883"
       width="1.0890559"
       height="1.1068418">
      <feGaussianBlur
         id="feGaussianBlur3613"
         stdDeviation="1.71955" />
    </filter>
    <filter
       height="1.1107364"
       width="1.3810042"
       y="-0.055368222"
       x="-0.19050209"
       id="r">
      <feGaussianBlur
         id="feGaussianBlur3619"
         stdDeviation="2.29248" />
    </filter>
    <filter
       height="1.1872218"
       width="1.3744498"
       y="-0.093610913"
       x="-0.18722489"
       id="v">
      <feGaussianBlur
         id="feGaussianBlur3625"
         stdDeviation=".94728" />
    </filter>
    <filter
       id="u"
       x="-0.07333979"
       y="-0.090819985"
       width="1.1466796"
       height="1.18164">
      <feGaussianBlur
         id="feGaussianBlur3616"
         stdDeviation="1.77462" />
    </filter>
    <filter
       height="1.2735533"
       width="1.3424896"
       y="-0.1367766"
       x="-0.17124479"
       id="t">
      <feGaussianBlur
         id="feGaussianBlur3628"
         stdDeviation="2.37859" />
    </filter>
    <radialGradient
       inkscape:collect="always"
       xlink:href="#a"
       id="radialGradient3604"
       gradientUnits="userSpaceOnUse"
       cx="15.891"
       cy="15.163"
       r="27.545" />
    <radialGradient
       gradientUnits="userSpaceOnUse"
       r="27.545"
       cy="15.163"
       cx="15.891"
       id="a">
      <stop
         id="stop3287"
         offset="0"
         stop-color="#fff" />
      <stop
         id="stop3289"
         offset="1"
         stop-opacity="0"
         stop-color="#00f038" />
    </radialGradient>
    <radialGradient
       inkscape:collect="always"
       xlink:href="#c"
       id="radialGradient3606"
       gradientUnits="userSpaceOnUse"
       gradientTransform="matrix(0.91888,0.94532,-0.71707,0.69701,13.381,-10.047)"
       cx="16.028"
       cy="16.847"
       r="27.545" />
    <radialGradient
       gradientUnits="userSpaceOnUse"
       gradientTransform="matrix(0.91888,0.94532,-0.71707,0.69701,13.381,-10.047)"
       r="27.545"
       cy="16.847"
       cx="16.028"
       id="c">
      <stop
         id="stop3292"
         offset="0"
         stop-color="#9bffb3" />
      <stop
         id="stop3294"
         offset="1"
         stop-color="#00f038" />
    </radialGradient>
    <radialGradient
       inkscape:collect="always"
       xlink:href="#a"
       id="radialGradient3592"
       gradientUnits="userSpaceOnUse"
       cx="15.891"
       cy="15.163"
       r="27.545" />
    <radialGradient
       gradientUnits="userSpaceOnUse"
       r="27.545"
       cy="15.163"
       cx="15.891"
       id="radialGradient1002">
      <stop
         id="stop998"
         offset="0"
         stop-color="#fff" />
      <stop
         id="stop1000"
         offset="1"
         stop-opacity="0"
         stop-color="#00f038" />
    </radialGradient>
    <radialGradient
       inkscape:collect="always"
       xlink:href="#c"
       id="radialGradient3594"
       gradientUnits="userSpaceOnUse"
       gradientTransform="matrix(0.91888,0.94532,-0.71707,0.69701,13.381,-10.047)"
       cx="16.028"
       cy="16.847"
       r="27.545" />
    <radialGradient
       gradientUnits="userSpaceOnUse"
       gradientTransform="matrix(0.91888,0.94532,-0.71707,0.69701,13.381,-10.047)"
       r="27.545"
       cy="16.847"
       cx="16.028"
       id="radialGradient1009">
      <stop
         id="stop1005"
         offset="0"
         stop-color="#9bffb3" />
      <stop
         id="stop1007"
         offset="1"
         stop-color="#00f038" />
    </radialGradient>
    <radialGradient
       inkscape:collect="always"
       xlink:href="#a"
       id="radialGradient3580"
       gradientUnits="userSpaceOnUse"
       cx="15.891"
       cy="15.163"
       r="27.545" />
    <radialGradient
       gradientUnits="userSpaceOnUse"
       r="27.545"
       cy="15.163"
       cx="15.891"
       id="radialGradient1016">
      <stop
         id="stop1012"
         offset="0"
         stop-color="#fff" />
      <stop
         id="stop1014"
         offset="1"
         stop-opacity="0"
         stop-color="#00f038" />
    </radialGradient>
    <radialGradient
       inkscape:collect="always"
       xlink:href="#c"
       id="radialGradient3582"
       gradientUnits="userSpaceOnUse"
       gradientTransform="matrix(0.91888,0.94532,-0.71707,0.69701,13.381,-10.047)"
       cx="16.028"
       cy="16.847"
       r="27.545" />
    <radialGradient
       gradientUnits="userSpaceOnUse"
       gradientTransform="matrix(0.91888,0.94532,-0.71707,0.69701,13.381,-10.047)"
       r="27.545"
       cy="16.847"
       cx="16.028"
       id="radialGradient1023">
      <stop
         id="stop1019"
         offset="0"
         stop-color="#9bffb3" />
      <stop
         id="stop1021"
         offset="1"
         stop-color="#00f038" />
    </radialGradient>
    <radialGradient
       inkscape:collect="always"
       xlink:href="#a"
       id="radialGradient3568"
       gradientUnits="userSpaceOnUse"
       cx="15.891"
       cy="15.163"
       r="27.545" />
    <radialGradient
       gradientUnits="userSpaceOnUse"
       r="27.545"
       cy="15.163"
       cx="15.891"
       id="radialGradient1030">
      <stop
         id="stop1026"
         offset="0"
         stop-color="#fff" />
      <stop
         id="stop1028"
         offset="1"
         stop-opacity="0"
         stop-color="#00f038" />
    </radialGradient>
    <radialGradient
       inkscape:collect="always"
       xlink:href="#c"
       id="radialGradient3570"
       gradientUnits="userSpaceOnUse"
       gradientTransform="matrix(0.91888,0.94532,-0.71707,0.69701,13.381,-10.047)"
       cx="16.028"
       cy="16.847"
       r="27.545" />
    <radialGradient
       gradientUnits="userSpaceOnUse"
       gradientTransform="matrix(0.91888,0.94532,-0.71707,0.69701,13.381,-10.047)"
       r="27.545"
       cy="16.847"
       cx="16.028"
       id="radialGradient1037">
      <stop
         id="stop1033"
         offset="0"
         stop-color="#9bffb3" />
      <stop
         id="stop1035"
         offset="1"
         stop-color="#00f038" />
    </radialGradient>
    <radialGradient
       inkscape:collect="always"
       xlink:href="#a"
       id="radialGradient3556"
       gradientUnits="userSpaceOnUse"
       cx="15.891"
       cy="15.163"
       r="27.545" />
    <radialGradient
       gradientUnits="userSpaceOnUse"
       r="27.545"
       cy="15.163"
       cx="15.891"
       id="radialGradient1044">
      <stop
         id="stop1040"
         offset="0"
         stop-color="#fff" />
      <stop
         id="stop1042"
         offset="1"
         stop-opacity="0"
         stop-color="#00f038" />
    </radialGradient>
    <radialGradient
       inkscape:collect="always"
       xlink:href="#c"
       id="radialGradient3558"
       gradientUnits="userSpaceOnUse"
       gradientTransform="matrix(0.91888,0.94532,-0.71707,0.69701,13.381,-10.047)"
       cx="16.028"
       cy="16.847"
       r="27.545" />
    <radialGradient
       gradientUnits="userSpaceOnUse"
       gradientTransform="matrix(0.91888,0.94532,-0.71707,0.69701,13.381,-10.047)"
       r="27.545"
       cy="16.847"
       cx="16.028"
       id="radialGradient1051">
      <stop
         id="stop1047"
         offset="0"
         stop-color="#9bffb3" />
      <stop
         id="stop1049"
         offset="1"
         stop-color="#00f038" />
    </radialGradient>
    <radialGradient
       inkscape:collect="always"
       xlink:href="#a"
       id="radialGradient3351"
       gradientUnits="userSpaceOnUse"
       cx="15.891"
       cy="15.163"
       r="27.545" />
    <radialGradient
       gradientUnits="userSpaceOnUse"
       r="27.545"
       cy="15.163"
       cx="15.891"
       id="radialGradient1058">
      <stop
         id="stop1054"
         offset="0"
         stop-color="#fff" />
      <stop
         id="stop1056"
         offset="1"
         stop-opacity="0"
         stop-color="#00f038" />
    </radialGradient>
    <radialGradient
       gradientUnits="userSpaceOnUse"
       gradientTransform="matrix(0.91888,0.94532,-0.71707,0.69701,13.381,-10.047)"
       r="27.545"
       cy="16.847"
       cx="16.028"
       id="b">
      <stop
         id="stop3297"
         offset="0"
         stop-color="#ff9b9b" />
      <stop
         id="stop3299"
         offset="1"
         stop-color="#f00000" />
    </radialGradient>
    <radialGradient
       inkscape:collect="always"
       xlink:href="#a"
       id="radialGradient3349"
       gradientUnits="userSpaceOnUse"
       cx="15.891"
       cy="15.163"
       r="27.545" />
    <radialGradient
       gradientUnits="userSpaceOnUse"
       r="27.545"
       cy="15.163"
       cx="15.891"
       id="radialGradient1068">
      <stop
         id="stop1064"
         offset="0"
         stop-color="#fff" />
      <stop
         id="stop1066"
         offset="1"
         stop-opacity="0"
         stop-color="#00f038" />
    </radialGradient>
    <radialGradient
       inkscape:collect="always"
       xlink:href="#c"
       id="radialGradient3608"
       gradientUnits="userSpaceOnUse"
       gradientTransform="matrix(0.91888,0.94532,-0.71707,0.69701,13.381,-10.047)"
       cx="16.028"
       cy="16.847"
       r="27.545" />
    <radialGradient
       gradientUnits="userSpaceOnUse"
       gradientTransform="matrix(0.91888,0.94532,-0.71707,0.69701,13.381,-10.047)"
       r="27.545"
       cy="16.847"
       cx="16.028"
       id="radialGradient1075">
      <stop
         id="stop1071"
         offset="0"
         stop-color="#9bffb3" />
      <stop
         id="stop1073"
         offset="1"
         stop-color="#00f038" />
    </radialGradient>
  </defs>
  <g
     inkscape:label="Layer 1"
     inkscape:groupmode="layer"
     id="layer1"
     ref="layer1">
    <text
       xml:space="preserve"
       style="font-style:normal;font-weight:normal;font-size:57.9752px;line-height:1.25;font-family:sans-serif;letter-spacing:0px;word-spacing:0px;fill:#ffffff;fill-opacity:1;stroke:none;stroke-width:1.44938"
       x="477.86911"
       y="551.3562"
       id="text1426"><tspan
         sodipodi:role="line"
         id="tspan1424"
         x="477.86911"
         y="551.3562"
         style="font-style:normal;font-variant:normal;font-weight:normal;font-stretch:normal;font-family:'Ubuntu Condensed';-inkscape-font-specification:'Ubuntu Condensed, ';text-align:center;text-anchor:middle;fill:#ffffff;stroke-width:1.44938">Je vérifie ton doc</tspan></text>
    <g
       id="g4556"
       ref="item1">
      <g
         transform="matrix(0.77355233,0,0,0.77355233,502.28667,69.292947)"
         id="g3310">
        <path
           style="fill:url(#radialGradient3349)"
           inkscape:connector-curvature="0"
           transform="matrix(0.99849,0,0,0.99849,3.9962,4.8147)"
           d="m 55.091,27.727 a 27.5455,27.5455 0 1 1 -55.091,0 27.5455,27.5455 0 1 1 55.091,0 z"
           id="path3304" />
        <path
           style="fill:url(#radialGradient3608);stroke:#00be31;stroke-width:2.5038;stroke-linecap:round;stroke-linejoin:round"
           inkscape:connector-curvature="0"
           transform="matrix(0.99849,0,0,0.99849,3.9962,4.8147)"
           d="m 55.091,27.727 a 27.5455,27.5455 0 1 1 -55.091,0 27.5455,27.5455 0 1 1 55.091,0 z"
           id="path3306" />
        <path
           style="fill:#ffffff"
           inkscape:connector-curvature="0"
           d="M 47.25,15.71 C 37.925,18.2183 29.623,25.724 28,35.491 24.0754,32.885 20.7828,27.5352 16.031,27.2722 c -3.1369,1.6334 -10.434,5.8662 -4.2812,8.3438 5.5045,4.2778 13.752,8.1309 15.062,15.562 2.689,2.5127 6.1669,-1.059 8.9688,-2 3.4741,-5.6234 -0.42848,-13.37 2.9375,-19.344 1.7386,-5.634 7.8204,-7.9146 11.281,-12 -0.0034,-1.4831 -1.3607,-2.5102 -2.75,-2.125 z"
           id="path3308" />
      </g>
      <text
         id="text3347"
         y="104.86115"
         x="566.41699"
         style="font-style:normal;font-weight:normal;font-size:32.9081px;line-height:1.25;font-family:sans-serif;letter-spacing:0px;word-spacing:0px;fill:#ffffff;fill-opacity:1;stroke:none;stroke-width:0.822703"
         xml:space="preserve"><tspan
           style="font-style:normal;font-variant:normal;font-weight:normal;font-stretch:normal;font-size:32.9082px;font-family:'Ubuntu Condensed';-inkscape-font-specification:'Ubuntu Condensed, Normal';font-variant-ligatures:normal;font-variant-caps:normal;font-variant-numeric:normal;font-feature-settings:normal;text-align:start;writing-mode:lr-tb;text-anchor:start;fill:#ffffff;stroke-width:0.822703"
           y="104.86115"
           x="566.41699"
           sodipodi:role="line"
           id="tspan3375">Je détecte les fraudes</tspan></text>
    </g>
    <g
       id="g3542"
       ref="item6">
      <g
         transform="matrix(0.77355233,0,0,0.77355233,455.3224,327.26174)"
         id="g3318">
        <path
           style="fill:url(#radialGradient3351)"
           inkscape:connector-curvature="0"
           transform="matrix(0.99849,0,0,0.99849,63.996,4.8147)"
           d="m 55.091,27.727 a 27.5455,27.5455 0 1 1 -55.091,0 27.5455,27.5455 0 1 1 55.091,0 z"
           id="path3312" />
        <path
           style="fill:url(#b);stroke:#be0000;stroke-width:2.5038;stroke-linecap:round;stroke-linejoin:round"
           inkscape:connector-curvature="0"
           transform="matrix(0.99849,0,0,0.99849,63.996,4.8147)"
           d="m 55.091,27.727 a 27.5455,27.5455 0 1 1 -55.091,0 27.5455,27.5455 0 1 1 55.091,0 z"
           id="path3314" />
        <path
           style="fill:#ffffff"
           inkscape:connector-curvature="0"
           d="m 95.594,19.312 c -1.798,1.5509 -3.1446,4.3692 -4.5312,5.8438 -2.6315,-2.177 -3.8188,-6.2358 -6.6562,-7.375 -3.4406,0.91828 -8.9042,4.1354 -4.875,7.625 2.0576,3.0423 6.1945,5.7464 7.1562,8.9062 -1.4673,3.7894 -4.291,6.615 -7.0312,9.375 1.3399,4.6754 7.7548,0.52478 10.344,-1.75 2.0648,-4.6338 3.5683,0.89824 5.4994,2.891 1.5405,6.2227 9.8042,4.4034 10.522,-0.73944 -2.8396,-4.5489 -6.7818,-8.9244 -9.521,-13.402 1.0851,-4.6542 5.6334,-7.7704 6.6875,-12.281 -1.7893,-3.1223 -5.2813,0.35232 -7.5938,0.90625 z"
           id="path3316" />
      </g>
      <text
         xml:space="preserve"
         style="font-style:normal;font-weight:normal;font-size:32.9081px;line-height:1.25;font-family:sans-serif;letter-spacing:0px;word-spacing:0px;fill:#ffffff;fill-opacity:1;stroke:none;stroke-width:0.822703"
         x="566.41699"
         y="365.68744"
         id="text3438"><tspan
           sodipodi:role="line"
           x="566.41699"
           y="365.68744"
           style="font-style:normal;font-variant:normal;font-weight:normal;font-stretch:normal;font-size:32.9082px;font-family:'Ubuntu Condensed';-inkscape-font-specification:'Ubuntu Condensed, Normal';font-variant-ligatures:normal;font-variant-caps:normal;font-variant-numeric:normal;font-feature-settings:normal;text-align:start;writing-mode:lr-tb;text-anchor:start;fill:#ffffff;stroke-width:0.822703"
           id="tspan3538">J'infirme votre conformité technique</tspan></text>
    </g>
    <g
       id="g4564"
       ref="item2">
      <text
         xml:space="preserve"
         style="font-style:normal;font-weight:normal;font-size:32.9081px;line-height:1.25;font-family:sans-serif;letter-spacing:0px;word-spacing:0px;fill:#ffffff;fill-opacity:1;stroke:none;stroke-width:0.822703"
         x="566.41699"
         y="156.34518"
         id="text3422"><tspan
           sodipodi:role="line"
           x="566.41699"
           y="156.34518"
           style="font-style:normal;font-variant:normal;font-weight:normal;font-stretch:normal;font-size:32.9082px;font-family:'Ubuntu Condensed';-inkscape-font-specification:'Ubuntu Condensed, Normal';font-variant-ligatures:normal;font-variant-caps:normal;font-variant-numeric:normal;font-feature-settings:normal;text-align:start;writing-mode:lr-tb;text-anchor:start;fill:#ffffff;stroke-width:0.822703"
           id="tspan3454">Je respecte vos règles métier</tspan></text>
      <g
         id="g3554"
         transform="matrix(0.77355233,0,0,0.77355233,502.28667,120.8867)">
        <path
           id="path3548"
           d="m 55.091,27.727 a 27.5455,27.5455 0 1 1 -55.091,0 27.5455,27.5455 0 1 1 55.091,0 z"
           transform="matrix(0.99849,0,0,0.99849,3.9962,4.8147)"
           inkscape:connector-curvature="0"
           style="fill:url(#radialGradient3556)" />
        <path
           id="path3550"
           d="m 55.091,27.727 a 27.5455,27.5455 0 1 1 -55.091,0 27.5455,27.5455 0 1 1 55.091,0 z"
           transform="matrix(0.99849,0,0,0.99849,3.9962,4.8147)"
           inkscape:connector-curvature="0"
           style="fill:url(#radialGradient3558);stroke:#00be31;stroke-width:2.5038;stroke-linecap:round;stroke-linejoin:round" />
        <path
           id="path3552"
           d="M 47.25,15.71 C 37.925,18.2183 29.623,25.724 28,35.491 24.0754,32.885 20.7828,27.5352 16.031,27.2722 c -3.1369,1.6334 -10.434,5.8662 -4.2812,8.3438 5.5045,4.2778 13.752,8.1309 15.062,15.562 2.689,2.5127 6.1669,-1.059 8.9688,-2 3.4741,-5.6234 -0.42848,-13.37 2.9375,-19.344 1.7386,-5.634 7.8204,-7.9146 11.281,-12 -0.0034,-1.4831 -1.3607,-2.5102 -2.75,-2.125 z"
           inkscape:connector-curvature="0"
           style="fill:#ffffff" />
      </g>
    </g>
    <g
       id="g323"
       ref="item3">
      <text
         id="text3426"
         y="207.96089"
         x="566.41699"
         style="font-style:normal;font-weight:normal;font-size:32.9081px;line-height:1.25;font-family:sans-serif;letter-spacing:0px;word-spacing:0px;fill:#ffffff;fill-opacity:1;stroke:none;stroke-width:0.822703"
         xml:space="preserve"><tspan
           style="font-style:normal;font-variant:normal;font-weight:normal;font-stretch:normal;font-size:32.9082px;font-family:'Ubuntu Condensed';-inkscape-font-specification:'Ubuntu Condensed, Normal';font-variant-ligatures:normal;font-variant-caps:normal;font-variant-numeric:normal;font-feature-settings:normal;text-align:start;writing-mode:lr-tb;text-anchor:start;fill:#ffffff;stroke-width:0.822703"
           y="207.96089"
           x="566.41699"
           sodipodi:role="line"
           id="tspan3486">Je vérifie votre conformité juridique</tspan></text>
      <g
         transform="matrix(0.77355233,0,0,0.77355233,502.28667,172.48045)"
         id="g3566">
        <path
           style="fill:url(#radialGradient3568)"
           inkscape:connector-curvature="0"
           transform="matrix(0.99849,0,0,0.99849,3.9962,4.8147)"
           d="m 55.091,27.727 a 27.5455,27.5455 0 1 1 -55.091,0 27.5455,27.5455 0 1 1 55.091,0 z"
           id="path3560" />
        <path
           style="fill:url(#radialGradient3570);stroke:#00be31;stroke-width:2.5038;stroke-linecap:round;stroke-linejoin:round"
           inkscape:connector-curvature="0"
           transform="matrix(0.99849,0,0,0.99849,3.9962,4.8147)"
           d="m 55.091,27.727 a 27.5455,27.5455 0 1 1 -55.091,0 27.5455,27.5455 0 1 1 55.091,0 z"
           id="path3562" />
        <path
           style="fill:#ffffff"
           inkscape:connector-curvature="0"
           d="M 47.25,15.71 C 37.925,18.2183 29.623,25.724 28,35.491 24.0754,32.885 20.7828,27.5352 16.031,27.2722 c -3.1369,1.6334 -10.434,5.8662 -4.2812,8.3438 5.5045,4.2778 13.752,8.1309 15.062,15.562 2.689,2.5127 6.1669,-1.059 8.9688,-2 3.4741,-5.6234 -0.42848,-13.37 2.9375,-19.344 1.7386,-5.634 7.8204,-7.9146 11.281,-12 -0.0034,-1.4831 -1.3607,-2.5102 -2.75,-2.125 z"
           id="path3564" />
      </g>
    </g>
    <g
       id="g482"
       ref="item4">
      <text
         xml:space="preserve"
         style="font-style:normal;font-weight:normal;font-size:32.9081px;line-height:1.25;font-family:sans-serif;letter-spacing:0px;word-spacing:0px;fill:#ffffff;fill-opacity:1;stroke:none;stroke-width:0.822703"
         x="566.41699"
         y="262.45605"
         id="text3430"><tspan
           sodipodi:role="line"
           x="566.41699"
           y="262.45605"
           style="font-style:normal;font-variant:normal;font-weight:normal;font-stretch:normal;font-size:32.9082px;font-family:'Ubuntu Condensed';-inkscape-font-specification:'Ubuntu Condensed, Normal';font-variant-ligatures:normal;font-variant-caps:normal;font-variant-numeric:normal;font-feature-settings:normal;text-align:start;writing-mode:lr-tb;text-anchor:start;fill:#ffffff;stroke-width:0.822703"
           id="tspan3510">Je transforme au format factur-X</tspan></text>
      <g
         id="g3578"
         transform="matrix(0.77355233,0,0,0.77355233,502.28667,224.07421)">
        <path
           id="path3572"
           d="m 55.091,27.727 a 27.5455,27.5455 0 1 1 -55.091,0 27.5455,27.5455 0 1 1 55.091,0 z"
           transform="matrix(0.99849,0,0,0.99849,3.9962,4.8147)"
           inkscape:connector-curvature="0"
           style="fill:url(#radialGradient3580)" />
        <path
           id="path3574"
           d="m 55.091,27.727 a 27.5455,27.5455 0 1 1 -55.091,0 27.5455,27.5455 0 1 1 55.091,0 z"
           transform="matrix(0.99849,0,0,0.99849,3.9962,4.8147)"
           inkscape:connector-curvature="0"
           style="fill:url(#radialGradient3582);stroke:#00be31;stroke-width:2.5038;stroke-linecap:round;stroke-linejoin:round" />
        <path
           id="path3576"
           d="M 47.25,15.71 C 37.925,18.2183 29.623,25.724 28,35.491 24.0754,32.885 20.7828,27.5352 16.031,27.2722 c -3.1369,1.6334 -10.434,5.8662 -4.2812,8.3438 5.5045,4.2778 13.752,8.1309 15.062,15.562 2.689,2.5127 6.1669,-1.059 8.9688,-2 3.4741,-5.6234 -0.42848,-13.37 2.9375,-19.344 1.7386,-5.634 7.8204,-7.9146 11.281,-12 -0.0034,-1.4831 -1.3607,-2.5102 -2.75,-2.125 z"
           inkscape:connector-curvature="0"
           style="fill:#ffffff" />
      </g>
    </g>
    <g
       id="g3550"
       ref="item5">
      <text
         id="text3434"
         y="314.07175"
         x="566.41699"
         style="font-style:normal;font-weight:normal;font-size:32.9081px;line-height:1.25;font-family:sans-serif;letter-spacing:0px;word-spacing:0px;fill:#ffffff;fill-opacity:1;stroke:none;stroke-width:0.822703"
         xml:space="preserve"><tspan
           style="font-style:normal;font-variant:normal;font-weight:normal;font-stretch:normal;font-size:32.9082px;font-family:'Ubuntu Condensed';-inkscape-font-specification:'Ubuntu Condensed, Normal';font-variant-ligatures:normal;font-variant-caps:normal;font-variant-numeric:normal;font-feature-settings:normal;text-align:start;writing-mode:lr-tb;text-anchor:start;fill:#ffffff;stroke-width:0.822703"
           y="314.07175"
           x="566.41699"
           sodipodi:role="line"
           id="tspan3527">Je vérifie les signatures numériques</tspan></text>
      <g
         transform="matrix(0.77355233,0,0,0.77355233,502.28667,275.668)"
         id="g3590">
        <path
           style="fill:url(#radialGradient3592)"
           inkscape:connector-curvature="0"
           transform="matrix(0.99849,0,0,0.99849,3.9962,4.8147)"
           d="m 55.091,27.727 a 27.5455,27.5455 0 1 1 -55.091,0 27.5455,27.5455 0 1 1 55.091,0 z"
           id="path3584" />
        <path
           style="fill:url(#radialGradient3594);stroke:#00be31;stroke-width:2.5038;stroke-linecap:round;stroke-linejoin:round"
           inkscape:connector-curvature="0"
           transform="matrix(0.99849,0,0,0.99849,3.9962,4.8147)"
           d="m 55.091,27.727 a 27.5455,27.5455 0 1 1 -55.091,0 27.5455,27.5455 0 1 1 55.091,0 z"
           id="path3586" />
        <path
           style="fill:#ffffff"
           inkscape:connector-curvature="0"
           d="M 47.25,15.71 C 37.925,18.2183 29.623,25.724 28,35.491 24.0754,32.885 20.7828,27.5352 16.031,27.2722 c -3.1369,1.6334 -10.434,5.8662 -4.2812,8.3438 5.5045,4.2778 13.752,8.1309 15.062,15.562 2.689,2.5127 6.1669,-1.059 8.9688,-2 3.4741,-5.6234 -0.42848,-13.37 2.9375,-19.344 1.7386,-5.634 7.8204,-7.9146 11.281,-12 -0.0034,-1.4831 -1.3607,-2.5102 -2.75,-2.125 z"
           id="path3588" />
      </g>
    </g>
    <g
       id="g3534"
       ref="item7">
      <text
         id="text3442"
         y="414.42368"
         x="566.41699"
         style="font-style:normal;font-weight:normal;font-size:32.9081px;line-height:1.25;font-family:sans-serif;letter-spacing:0px;word-spacing:0px;fill:#ffffff;fill-opacity:1;stroke:none;stroke-width:0.822703"
         xml:space="preserve"><tspan
           style="font-style:normal;font-variant:normal;font-weight:normal;font-stretch:normal;font-size:32.9082px;font-family:'Ubuntu Condensed';-inkscape-font-specification:'Ubuntu Condensed, Normal';font-variant-ligatures:normal;font-variant-caps:normal;font-variant-numeric:normal;font-feature-settings:normal;text-align:start;writing-mode:lr-tb;text-anchor:start;fill:#ffffff;stroke-width:0.822703"
           y="414.42368"
           x="566.41699"
           sodipodi:role="line"
           id="tspan3544">J'intégre vos documents et vos PJ</tspan></text>
      <g
         id="g3602"
         transform="matrix(0.77355233,0,0,0.77355233,502.28667,378.8555)">
        <path
           id="path3596"
           d="m 55.091,27.727 a 27.5455,27.5455 0 1 1 -55.091,0 27.5455,27.5455 0 1 1 55.091,0 z"
           transform="matrix(0.99849,0,0,0.99849,3.9962,4.8147)"
           inkscape:connector-curvature="0"
           style="fill:url(#radialGradient3604)" />
        <path
           id="path3598"
           d="m 55.091,27.727 a 27.5455,27.5455 0 1 1 -55.091,0 27.5455,27.5455 0 1 1 55.091,0 z"
           transform="matrix(0.99849,0,0,0.99849,3.9962,4.8147)"
           inkscape:connector-curvature="0"
           style="fill:url(#radialGradient3606);stroke:#00be31;stroke-width:2.5038;stroke-linecap:round;stroke-linejoin:round" />
        <path
           id="path3600"
           d="M 47.25,15.71 C 37.925,18.2183 29.623,25.724 28,35.491 24.0754,32.885 20.7828,27.5352 16.031,27.2722 c -3.1369,1.6334 -10.434,5.8662 -4.2812,8.3438 5.5045,4.2778 13.752,8.1309 15.062,15.562 2.689,2.5127 6.1669,-1.059 8.9688,-2 3.4741,-5.6234 -0.42848,-13.37 2.9375,-19.344 1.7386,-5.634 7.8204,-7.9146 11.281,-12 -0.0034,-1.4831 -1.3607,-2.5102 -2.75,-2.125 z"
           inkscape:connector-curvature="0"
           style="fill:#ffffff" />
      </g>
    </g>
    <text
       xml:space="preserve"
       style="font-style:normal;font-weight:normal;font-size:10.5833px;line-height:1.25;font-family:sans-serif;letter-spacing:0px;word-spacing:0px;fill:#000000;fill-opacity:1;stroke:none;stroke-width:0.264583"
       x="420.04572"
       y="635.47839"
       id="text435"><tspan
         sodipodi:role="line"
         id="tspan433"
         style="stroke-width:0.264583"
         x="420.04572"
         y="635.47839">je </tspan></text>
    <path
       style="fill:#ffffff;fill-opacity:1;stroke:none;stroke-width:0.73305px;stroke-linecap:butt;stroke-linejoin:miter;stroke-opacity:1"
       d="M 66.39878,422.68365 65.279432,83.218473 c 32.538185,1.406956 60.443138,-0.944046 108.398318,-6.387169 37.30377,-1.148804 73.70256,-0.834301 105.82983,6.387169 l 111.78366,122.947647 -6.77222,209.72106 c -46.4957,0.43339 -94.28251,1.53106 -157.61217,10.63014 z"
       id="path10882"
       sodipodi:nodetypes="cccccccc" />
    <path
       id="path10884"
       style="fill:#d41034;fill-opacity:1;stroke:none;stroke-width:1.4071;stroke-linecap:round;stroke-linejoin:miter;stroke-miterlimit:0;stroke-dasharray:none;stop-color:#000000"
       d="M 222.71116,147.29915 A 134.39128,150.37455 0 0 0 88.323939,297.49693 h 52.897131 a 81.496256,91.188678 0 0 1 81.49009,-91.01229 81.496256,91.188678 0 0 1 81.48763,91.01229 h 52.89963 A 134.39128,150.37455 0 0 0 222.71116,147.29915 Z"
       ref="target2" />
    <path
       style="fill:#ffffff;fill-opacity:1;stroke:none;stroke-width:0.760104;stroke-linecap:round;stroke-linejoin:miter;stroke-miterlimit:0;stroke-dasharray:none;stroke-opacity:1"
       d="m 275.45331,82.046064 4.13596,122.724176 c 39.61003,-7.73922 77.56706,-9.20118 111.4876,1.47912 C 353.18313,162.76063 315.7795,116.62354 275.45331,82.046064 Z"
       id="path10886"
       sodipodi:nodetypes="cccc" />
    <path
       style="fill:#000000;stroke-width:0.760104;stroke-linecap:round;stroke-linejoin:miter;stroke-miterlimit:0;stroke-dasharray:none;stop-color:#000000"
       id="path10888"
       d="m 56.765694,86.997832 c 9.494687,0.22476 18.987933,0.490386 28.47421,0.99728 9.500021,0.620564 19.011236,1.193164 28.510636,0.215081 5.24661,-0.540177 9.05993,-1.333237 14.24696,-2.274003 9.0618,-1.724201 18.07969,-3.735805 27.21093,-4.969405 6.18763,-0.835915 8.7236,-0.99486 14.87365,-1.5452 7.31759,-0.52695 14.64595,-0.994806 21.98133,-1.008195 4.2549,-0.01075 7.08429,0.0984 11.34625,0.212393 10.93985,0.70079 21.8946,0.922055 32.84689,1.237365 7.86668,0.227986 15.73614,0.153245 23.59609,0.622768 1.12281,0.102164 2.78571,0.201101 3.93831,0.478557 0.94207,0.226911 2.40184,0.850755 3.27443,1.196767 2.56297,1.016206 1.05909,0.405429 3.50649,1.41572 0,0 8.51431,-6.423517 8.51431,-6.423517 v 0 c -1.16884,-0.474793 -2.34643,-0.922377 -3.51283,-1.404375 -0.45796,-0.189272 -2.85592,-1.266562 -3.38539,-1.410344 -1.13381,-0.308104 -3.07293,-0.366176 -4.15811,-0.438228 -7.96932,-0.324236 -15.94326,-0.336065 -23.91681,-0.398976 -10.97627,-0.154321 -21.94092,-0.614596 -32.906,-1.180852 -2.26181,-0.06936 -8.99097,-0.289284 -11.29065,-0.306491 -7.44946,-0.05646 -14.88604,0.549641 -22.30873,1.185099 -7.35086,0.671539 -14.70089,1.317859 -22.00465,2.49871 -4.85313,0.784564 -8.34814,1.595797 -13.18431,2.567375 -2.30458,0.462963 -4.61228,0.906084 -6.91845,1.359154 -4.92027,0.923775 -9.25528,1.830774 -14.22812,2.387351 -9.42087,1.054437 -18.85218,0.472642 -28.272377,-0.254334 -2.025861,-0.134964 -4.050472,-0.294124 -6.077486,-0.404353 -7.252579,-0.394137 -14.530001,-0.3608 -21.761051,-1.18069 0,0 -8.395522,6.825182 -8.395522,6.825182 z" />
    <path
       style="fill:#000000;stroke-width:0.749663;stroke-linecap:round;stroke-linejoin:miter;stroke-miterlimit:0;stroke-dasharray:none;stop-color:#000000"
       id="path10890"
       d="m 270.29574,82.615761 c 2.29651,5.381233 4.43333,11.008515 5.49275,16.885242 0.24316,1.348297 0.3633,2.720727 0.54485,4.081067 0.8327,10.02952 -0.45892,20.06103 -1.70605,29.97511 -0.82468,6.78254 -1.61475,13.58229 -2.05263,20.41296 -0.21961,3.42275 -0.26959,6.10353 -0.37243,9.54193 -0.43922,9.99381 0.34937,19.95489 1.06678,29.90294 0.49713,5.04555 -0.22442,9.85902 -1.52753,14.66373 0,0 9.17777,-4.88198 9.17777,-4.88198 v 0 c 1.1711,-5.0321 1.69033,-9.64162 1.07114,-14.86934 -0.0855,-0.89753 -0.75802,-7.91511 -0.80208,-8.49545 -0.53543,-7.05494 -0.59344,-14.14021 -0.32534,-21.21204 0.36955,-9.97279 1.02204,-19.93424 2.38503,-29.80686 1.29403,-10.03936 2.56581,-20.19277 1.75257,-30.355317 -0.1879,-1.40013 -0.31236,-2.81273 -0.5634,-4.200277 -1.08595,-5.999427 -3.44229,-11.613862 -5.24671,-17.358367 0,0 -8.89472,5.716652 -8.89472,5.716652 z" />
    <path
       style="fill:#000000;stroke-width:0.760104;stroke-linecap:round;stroke-linejoin:miter;stroke-miterlimit:0;stroke-dasharray:none;stop-color:#000000"
       id="path10892"
       d="m 268.73289,210.26649 c 14.63299,-4.71066 29.82937,-6.70791 44.94002,-8.36995 11.89663,-1.16929 23.83737,-1.60919 35.77576,-1.68581 5.86268,0.005 11.72516,0.0215 17.58765,0.0704 4.64314,-0.26563 9.15499,0.68563 13.65718,1.82411 l 8.50273,-4.74567 v 0 c 0,0 -9.2435,-4.12462 -13.95469,-3.74371 -5.93048,2.2e-4 -11.86183,-0.0672 -17.79145,0.0704 -12.16084,0.31079 -24.3185,0.89076 -36.43642,2.11898 -14.79772,1.61855 -29.58452,3.68134 -44.10021,7.37069 l -8.18057,7.09054 z"
       sodipodi:nodetypes="scccccscccccs" />
    <path
       style="fill:#000000;stroke-width:1.02519;stroke-linecap:round;stroke-linejoin:miter;stroke-miterlimit:0;stroke-dasharray:none;stop-color:#000000"
       id="path10894"
       d="m 383.73755,216.13693 c -0.65254,26.13187 -1.51951,52.24647 -1.90515,78.40254 0.0533,6.43718 -0.16002,13.16127 0.67013,19.46875 0.18694,1.42223 0.67527,3.7478 0.95515,5.14491 0,0 9.04114,-10.30762 9.04114,-10.30762 v 0 c -0.37099,-1.78776 -0.62693,-2.8779 -0.89253,-4.76911 -0.84543,-6.01986 -0.89988,-12.38117 -1.02891,-18.58111 -0.0999,-26.19521 0.49949,-52.43048 2.11337,-78.43126 0,0 -8.9532,9.0729 -8.9532,9.0729 z" />
    <path
       style="fill:#000000;stroke-width:0.769574;stroke-linecap:round;stroke-linejoin:miter;stroke-miterlimit:0;stroke-dasharray:none;stop-color:#000000"
       id="path10896"
       d="m 59.982698,100.60491 c 0.08169,4.29997 0.125904,8.60256 0.06968,12.90323 -0.01442,4.40186 -0.349361,8.80624 -0.234029,13.20955 0.04325,1.65484 0.275837,4.76293 0.391169,6.42508 0.6486,7.76272 0.814054,15.56373 0.888443,23.36151 0.138399,8.47427 -1.216179,16.8076 -2.123268,25.16728 -0.614577,6.68458 -1.573469,13.38716 -1.557419,20.13723 0.003,1.32495 0.07833,2.64813 0.117735,3.97218 0.347439,6.44346 1.017231,12.87402 2.07949,19.19877 0.684498,4.07536 1.463039,7.67389 2.292711,11.71662 1.789141,7.94038 3.267558,15.98701 3.790109,24.22199 0.245081,3.85787 0.223457,6.77556 0.26094,10.62761 0.0043,7.47376 -0.803771,14.91128 -2.42544,22.10361 -0.419521,1.73512 -1.082346,3.34925 -1.682266,4.99301 0,0 9.05109,-5.14588 9.05109,-5.14588 v 0 c 0.570126,-1.67183 1.153035,-3.34215 1.506769,-5.11098 1.359096,-7.27228 2.082326,-14.71158 1.978623,-22.18685 -0.07737,-4.21333 -0.06055,-6.44916 -0.375792,-10.67976 -0.616259,-8.26155 -2.162289,-16.32652 -3.895542,-24.32303 -1.973288,-10.1483 -3.749502,-20.3914 -4.006213,-30.8691 -0.01922,-1.30705 -0.07112,-2.61388 -0.06151,-3.92104 0.04998,-6.69044 0.856294,-13.34264 1.498791,-19.97016 0.927561,-8.42491 2.335769,-16.83653 2.135715,-25.38129 -0.180207,-7.83176 -0.23547,-15.68224 -0.830729,-23.48685 -0.152335,-2.20593 -0.309956,-4.11155 -0.358972,-6.32845 -0.09755,-4.39826 0.193662,-8.79732 0.258056,-13.19251 0.113891,-4.36659 0.109566,-8.733927 0.19126,-13.101157 0,0 -8.959545,5.659387 -8.959545,5.659387 z" />
    <path
       style="fill:#000000;stroke-width:0.610722;stroke-linecap:round;stroke-linejoin:miter;stroke-miterlimit:0;stroke-dasharray:none;stop-color:#000000"
       id="path10898"
       d="m 307.86655,116.83556 c 6.12194,6.04965 7.32663,10.09458 13.33122,16.26699 6.70859,6.95057 13.37197,13.94739 20.03827,20.94104 5.04411,5.31208 10.13656,10.57534 15.21974,15.84774 4.52968,4.69002 9.036,9.40374 13.4996,14.16038 2.27387,2.4808 4.65015,4.85756 6.98486,7.27685 1.47294,1.51305 2.93661,3.02932 4.25447,4.68813 l 8.52186,1.52843 v 0 c -1.33334,-1.71985 -2.84597,-3.25897 -4.37167,-4.79847 -2.33145,-2.43204 -4.61849,-4.90908 -7.00812,-7.28153 -4.62267,-4.69943 -9.2066,-9.4388 -13.7642,-14.20512 -5.07352,-5.29471 -10.13848,-10.59841 -15.25049,-15.85382 -6.76362,-6.97896 -13.53046,-13.95486 -20.25164,-20.97712 -5.80223,-6.11089 -8.79721,-8.75172 -14.47647,-14.98435 l -8.54728,-1.44207 z"
       sodipodi:nodetypes="ccccccccscccccccc" />
    <path
       id="path10900"
       style="fill:#000000;stroke:#fdfdfd;stroke-width:15.0159;stroke-linecap:round;stroke-linejoin:round;stroke-miterlimit:0;stroke-dasharray:none;stroke-opacity:1;paint-order:stroke markers fill;stop-color:#000000"
       d="m 344.1565,85.355448 -31.61433,2.370413 c -7.09145,4.785511 -12.52394,11.811952 -17.9669,18.693649 -22.07216,27.78354 -44.42914,55.3278 -65.0028,84.53899 -4.24567,6.50423 -8.68352,12.85741 -12.73533,19.51478 -4.81109,7.90467 -10.61356,18.64213 -15.64551,28.30016 -2.57388,-14.26012 -5.90064,-28.32441 -10.72043,-41.95639 -1.59442,-4.632 -3.07207,-9.31808 -4.78399,-13.89733 -7.3371,-19.62533 -16.4079,-38.39781 -24.47558,-57.64422 l -27.55997,17.69637 c 10.00417,17.90602 18.81254,36.82847 26.0136,56.36395 1.67112,4.53349 3.11695,9.16586 4.67624,13.74892 8.82057,25.45539 12.68551,52.33601 15.4838,79.30202 0.34023,3.32822 0.68027,6.65414 1.01978,9.98231 l 27.09565,-15.93367 c -0.0644,-0.4877 -0.12494,-0.974 -0.18693,-1.46116 1.03343,-3.03238 1.936,-6.12584 3.11335,-9.09171 3.28039,-8.26467 10.61274,-24.10575 14.22768,-31.4824 5.50405,-11.23177 13.8692,-27.29654 20.24703,-37.81408 3.99127,-6.58187 8.38851,-12.84639 12.58185,-19.26883 20.93003,-29.40509 43.77141,-57.03172 66.78136,-84.39526 5.79324,-6.818457 11.54482,-13.926526 19.45109,-17.566512 z"
       ref="target3" />
    <g
       aria-label="Vérif ton doc"
       id="text10904"
       style="font-size:16.618px;line-height:1.25;text-align:center;text-anchor:middle;stroke:#000000;stroke-width:0.715;stroke-dasharray:none;stroke-opacity:1"
       transform="matrix(4.8055143,0,0,5.3770384,-1234.1325,-745.43143)">
      <path
         d="m 262.18296,198.69376 q 0,-0.17851 0.1136,-0.21097 0.12982,-0.0487 0.25965,-0.0487 0.30834,0 0.568,0.35703 0.25966,0.35703 0.47063,0.84388 0.2272,0.47063 0.38948,0.95749 0.17852,0.47062 0.30834,0.73028 0.0487,0.0974 0.19475,0.40571 0.14605,0.30834 0.32457,0.73029 0.19474,0.42194 0.38948,0.89256 0.21097,0.4544 0.40571,0.87634 0.19475,0.42195 0.32457,0.74652 0.12983,0.30834 0.17852,0.40571 0.0974,-0.0974 0.19474,-0.4544 0.1136,-0.35703 0.2272,-0.87634 0.12983,-0.53554 0.24343,-1.15222 0.1136,-0.63292 0.2272,-1.26583 0.12982,-0.64914 0.25965,-1.23337 0.12983,-0.60045 0.25966,-1.05485 0.12983,-0.4544 0.24343,-0.69783 0.12982,-0.25965 0.25965,-0.21097 0.24343,-0.0649 0.3408,0.24343 0.0974,0.29212 0.0811,0.84388 -0.0162,0.53555 -0.12982,1.28206 -0.1136,0.74651 -0.30835,1.54171 -0.17851,0.77897 -0.42194,1.57416 -0.2272,0.7952 -0.50308,1.44434 -0.27589,0.64914 -0.55177,1.10354 -0.27589,0.4544 -0.53554,0.58423 -0.0325,0 -0.1136,-0.0162 -0.0811,0 -0.0974,0 -0.0811,-0.16229 -0.29212,-0.55177 -0.21097,-0.40572 -0.43817,-0.84389 -0.22719,-0.45439 -0.42194,-0.84388 -0.19474,-0.38948 -0.25965,-0.55177 -0.0974,-0.21097 -0.30834,-0.64914 -0.19475,-0.43817 -0.43817,-0.97371 -0.24343,-0.55177 -0.50309,-1.15222 -0.24343,-0.60046 -0.47063,-1.136 -0.21097,-0.55177 -0.34079,-0.97371 -0.12983,-0.43817 -0.12983,-0.66537 z"
         style="font-family:'Indie Flower';-inkscape-font-specification:'Indie Flower';stroke:#000000;stroke-width:0.715;stroke-dasharray:none;stroke-opacity:1"
         id="path11069" />
      <path
         d="m 269.19368,202.68598 q 0,-0.84389 0.24342,-1.60663 0.25966,-0.77897 0.73029,-1.36319 0.48685,-0.58423 1.16845,-0.92503 0.69783,-0.35703 1.60662,-0.35703 0.53554,0.0649 0.92503,0.29212 0.40571,0.2272 0.64914,0.568 0.25966,0.32457 0.37326,0.76274 0.0974,0.42194 0.0974,0.90879 0,0.58423 -0.3408,1.05486 -0.3408,0.47062 -0.86011,0.79519 -0.51932,0.30835 -1.11977,0.48686 -0.60046,0.16228 -1.11977,0.16228 -0.19474,0 -0.40571,0 -0.19474,0 -0.35703,-0.0649 -0.16228,-0.0649 -0.25966,-0.19474 -0.0974,-0.12983 -0.0974,-0.38949 0,-0.0811 0.0162,-0.12982 0.0325,-0.0649 0.14606,-0.0812 0.1136,-0.0324 0.3408,-0.0162 0.2272,0.0325 0.61668,0.0974 0.2272,0 0.64914,-0.14606 0.43817,-0.16229 0.87634,-0.40571 0.4544,-0.24343 0.77897,-0.55177 0.32457,-0.32457 0.32457,-0.63292 0,-0.32457 -0.1136,-0.63291 -0.0974,-0.32457 -0.30834,-0.568 -0.21097,-0.24342 -0.50309,-0.38948 -0.27588,-0.14606 -0.63291,-0.1136 -0.568,0.0487 -1.03862,0.30834 -0.4544,0.25966 -0.77897,0.6816 -0.32457,0.40571 -0.50308,0.9088 -0.17852,0.50308 -0.17852,1.05485 0,0.42194 0.0162,0.84388 0.0162,0.42194 0.1136,0.82766 0.1136,0.40571 0.3408,0.77897 0.24343,0.37325 0.6816,0.66536 0.45439,0.27589 1.13599,0.47063 0.6816,0.17852 1.68777,0.2272 l 2.9049,-0.19474 q -0.25965,0.35703 -0.66537,0.58423 -0.38948,0.22719 -0.84388,0.37325 -0.43817,0.12983 -0.87634,0.19474 -0.43817,0.0649 -0.82765,0.0649 -0.94126,0 -1.76891,-0.30834 -0.82766,-0.30835 -1.46057,-0.86012 -0.63291,-0.56799 -1.00617,-1.36319 -0.35702,-0.81143 -0.35702,-1.81759 z m 2.09347,-5.12822 q 0,-0.34079 0.25966,-0.64914 0.25966,-0.30834 0.61668,-0.58422 0.37326,-0.27589 0.76274,-0.51932 0.35703,-0.24342 0.61669,-0.43817 0.3408,0.16229 0.29211,0.38949 -0.0325,0.2272 -0.3408,0.53554 -0.29211,0.30834 -0.77897,0.71405 -0.48685,0.40572 -1.02239,0.94126 -0.24343,0 -0.32457,-0.0811 -0.0811,-0.0811 -0.0811,-0.30835 z"
         style="font-family:'Indie Flower';-inkscape-font-specification:'Indie Flower';stroke:#000000;stroke-width:0.715;stroke-dasharray:none;stroke-opacity:1"
         id="path11071" />
      <path
         d="m 279.23913,207.03522 q -0.35703,-0.64914 -0.61669,-1.41188 -0.25965,-0.76274 -0.43817,-1.54171 -0.17851,-0.77897 -0.29211,-1.50925 -0.0974,-0.74652 -0.12983,-1.34697 0,-0.1136 -0.0162,-0.24343 -0.0162,-0.14606 -0.0162,-0.29211 0.0162,-0.14606 0.0487,-0.27589 0.0487,-0.12983 0.14606,-0.2272 h 0.0324 q 0.0162,0 0.0162,0 0,-0.0162 0.0162,-0.0162 0.0162,0 0.0162,0.0162 0,0 0.0325,0 h 0.0324 q 0.0325,0.0162 0.16229,0.0649 0.12983,0.0487 0.16228,0.0811 0.29212,-0.0974 0.60046,-0.2272 0.30834,-0.14606 0.61668,-0.25966 0.32457,-0.12982 0.64914,-0.21097 0.32457,-0.0811 0.63292,-0.0811 0.22719,0 0.38948,0.0162 0.17851,0.0162 0.3408,0.0649 0.17851,0.0325 0.37325,0.0974 0.19475,0.0487 0.4544,0.12982 0.12983,0.0974 0.2272,0.19475 0.1136,0.0811 0.19474,0.19474 0.0974,0.1136 0.14606,0.27588 0.0487,0.16229 0.0487,0.42194 -0.25966,0.0325 -0.61669,-0.0325 -0.3408,-0.0812 -0.73028,-0.19475 -0.37326,-0.11359 -0.77897,-0.19474 -0.40571,-0.0811 -0.77897,-0.0649 -0.37325,0.0162 -0.69782,0.21097 -0.3408,0.16228 -0.60046,0.58423 -0.1136,0.47062 -0.0974,0.92502 0.0162,0.4544 0.1136,0.89257 0.0974,0.42194 0.24343,0.86011 0.16228,0.42194 0.29211,0.86011 0.14606,0.42194 0.25966,0.84388 0.1136,0.42195 0.14605,0.86012 0,0.16228 -0.17851,0.35702 -0.17851,0.17852 -0.40571,0.17852 z"
         style="font-family:'Indie Flower';-inkscape-font-specification:'Indie Flower';stroke:#000000;stroke-width:0.715;stroke-dasharray:none;stroke-opacity:1"
         id="path11073" />
      <path
         d="m 284.23751,201.42015 q 0,-0.0649 0,-0.24343 0,-0.17851 0,-0.37325 0.0162,-0.19474 0.0162,-0.37326 0,-0.17851 0,-0.24343 -0.0649,-0.50308 0.29211,-0.50308 0.16229,0 0.27589,0.0811 0.1136,0.0811 0.21097,0.24343 -0.0487,0.84388 0.0649,1.63908 0.12983,0.77897 0.27589,1.55794 0.16228,0.76274 0.29211,1.54171 0.14606,0.77897 0.14606,1.62285 0,0.2272 -0.14606,0.4544 -0.12983,0.2272 -0.40571,0.2272 -0.21097,0 -0.37326,-0.35703 -0.14606,-0.37326 -0.25966,-0.92503 -0.1136,-0.56799 -0.19474,-1.24959 -0.0811,-0.6816 -0.12983,-1.29828 -0.0324,-0.63292 -0.0487,-1.11977 -0.0162,-0.50309 -0.0162,-0.6816 z m -0.82765,-4.07336 q 0,-0.19474 0.1136,-0.24342 0.11359,-0.0649 0.29211,-0.0649 0.1136,-0.0162 0.29211,0.14606 0.19474,0.14605 0.30834,0.3408 0.12983,0.19474 0.14606,0.35702 0.0162,0.19475 -0.24343,0.2272 h -0.0811 q -0.24343,0 -0.40571,-0.0325 -0.16229,-0.0325 -0.25966,-0.0974 -0.0811,-0.0812 -0.12983,-0.2272 -0.0325,-0.14606 -0.0325,-0.40572 z"
         style="font-family:'Indie Flower';-inkscape-font-specification:'Indie Flower';stroke:#000000;stroke-width:0.715;stroke-dasharray:none;stroke-opacity:1"
         id="path11075" />
      <path
         d="m 291.60526,201.87455 q 0.3408,0 0.29211,0.32457 0.14606,0.17851 -0.0162,0.3408 -0.14605,0.14606 -0.50308,0.2272 -0.35703,0.0649 -0.89257,0.0649 -0.53554,-0.0162 -1.16845,-0.14605 0,0.61668 0.27588,1.15222 0.29211,0.53554 0.63291,1.0224 0.3408,0.48685 0.63292,0.94125 0.29211,0.4544 0.29211,0.9088 0,0.21097 -0.12983,0.27588 -0.0974,0.0649 -0.29211,0.0649 -0.16229,0 -0.35703,-0.1136 -0.17851,-0.12983 -0.3408,-0.30835 -0.14606,-0.17851 -0.27588,-0.37325 -0.1136,-0.19474 -0.17852,-0.32457 -0.0649,-0.12983 -0.19474,-0.37326 -0.1136,-0.24343 -0.27588,-0.568 -0.16229,-0.32457 -0.32457,-0.66536 -0.16229,-0.35703 -0.32458,-0.6816 -0.14605,-0.32457 -0.25965,-0.58423 -0.12983,-0.24343 -0.17851,-0.37325 l -0.17852,-0.17852 q -0.0811,0.0325 -0.30834,0.0811 -0.21097,0.0325 -0.4544,0.0811 -0.24343,0.0487 -0.47063,0.0974 -0.2272,0.0487 -0.32457,0.0487 h -0.0811 q -0.12983,0 -0.17851,-0.0811 -0.0487,-0.0974 -0.0487,-0.2272 0,-0.27588 0.19474,-0.42194 0.19475,-0.14606 0.47063,-0.21097 0.27589,-0.0649 0.568,-0.0811 0.30834,-0.0325 0.50308,-0.0487 -0.0325,-0.48685 -0.0487,-1.15222 -0.0162,-0.66537 0.0649,-1.37943 0.0811,-0.71405 0.25966,-1.39565 0.19474,-0.69783 0.53554,-1.2496 0.35703,-0.55176 0.89257,-0.89256 0.53554,-0.3408 1.31451,-0.3408 0.43817,0 0.95748,0.2272 0.51931,0.21097 0.95748,0.56799 0.4544,0.35703 0.74651,0.81143 0.29212,0.43817 0.29212,0.89257 h -0.37326 q -0.32457,0 -0.58423,-0.24343 -0.24342,-0.24343 -0.51931,-0.53554 -0.27588,-0.30834 -0.58422,-0.55177 -0.30835,-0.24343 -0.69783,-0.24343 -0.55177,0 -1.00617,0.24343 -0.4544,0.24343 -0.77897,0.64914 -0.32457,0.40571 -0.48685,0.9088 -0.16229,0.50308 -0.16229,1.02239 v 0.16229 l 0.29212,2.32068 q 0.0324,0.0324 0.17851,0.0649 0.14606,0.0162 0.4544,0.0649 0.32457,0.0324 0.84388,0.0811 0.53554,0.0487 1.34697,0.0974 z"
         style="font-family:'Indie Flower';-inkscape-font-specification:'Indie Flower';stroke:#000000;stroke-width:0.715;stroke-dasharray:none;stroke-opacity:1"
         id="path11077" />
      <path
         d="m 300.82305,201.45261 q -0.12982,0 -0.4544,0 -0.32457,0 -0.68159,-0.0487 -0.3408,-0.0649 -0.63291,-0.19474 -0.27589,-0.12983 -0.27589,-0.37326 0,-0.0649 0.0162,-0.17851 0.0325,-0.12983 0.16228,-0.12983 l 1.67154,-0.14605 q 0.0649,-0.60046 0.0974,-0.97372 0.0325,-0.38948 0.0162,-0.71405 -0.0162,-0.3408 -0.0487,-0.69783 -0.0162,-0.37325 -0.0325,-0.95748 0,-0.1136 0.0487,-0.17851 0.0487,-0.0649 0.1136,-0.0974 0.0811,-0.0325 0.16229,-0.0487 0.0974,-0.0162 0.14606,-0.0162 0.0974,0 0.19474,0.0649 0.1136,0.0649 0.19474,0.16228 0.0811,0.0974 0.12983,0.21097 0.0487,0.0974 0.0487,0.19474 l 0.12983,3.03474 1.39565,0.0649 q 0.27589,-0.0325 0.50309,0.1136 0.24343,0.12983 0.25965,0.50309 -0.19474,0.21097 -0.47062,0.25965 -0.27589,0.0325 -0.58423,0.0325 -0.29211,-0.0162 -0.58423,0 -0.29211,0 -0.51931,0.14605 0,0.0974 0.0162,0.53555 0.0162,0.43817 0.0325,1.03862 0.0162,0.60046 0.0325,1.28205 0.0325,0.6816 0.0487,1.26583 0.0162,0.568 0.0162,0.97371 0.0162,0.40571 0.0162,0.4544 -0.37326,0.2272 -0.60046,-0.0325 -0.2272,-0.27588 -0.37325,-0.7952 -0.12983,-0.53554 -0.19475,-1.23336 -0.0487,-0.71406 -0.0649,-1.39566 0,-0.69782 0.0162,-1.28205 0.0162,-0.58423 0.0487,-0.84388 z"
         style="font-family:'Indie Flower';-inkscape-font-specification:'Indie Flower';stroke:#000000;stroke-width:0.715;stroke-dasharray:none;stroke-opacity:1"
         id="path11079" />
      <path
         d="m 304.3771,203.7246 q 0,-0.89257 0.38948,-1.55794 0.38949,-0.66537 1.0224,-1.11976 0.63291,-0.4544 1.41188,-0.66537 0.7952,-0.2272 1.59039,-0.2272 0.42195,0 0.77897,0.16228 0.37326,0.14606 0.69783,0.42194 0.3408,0.25966 0.60045,0.61669 0.25966,0.3408 0.43817,0.71405 0.19475,0.37326 0.29212,0.76274 0.0974,0.37326 0.0974,0.73028 0,0.82766 -0.32457,1.4768 -0.32457,0.64914 -0.87634,1.10354 -0.55177,0.43817 -1.2496,0.6816 -0.69782,0.2272 -1.42811,0.2272 -0.74651,0 -1.37942,-0.2272 -0.61668,-0.24343 -1.08731,-0.66537 -0.4544,-0.42194 -0.71406,-1.03863 -0.25965,-0.63291 -0.25965,-1.39565 z m 0.7952,-0.12983 q 0,0.50309 0.17851,0.97371 0.19474,0.4544 0.51931,0.7952 0.3408,0.3408 0.7952,0.55177 0.4544,0.19474 0.97371,0.19474 0.27588,0.0325 0.66537,-0.0811 0.40571,-0.12983 0.7952,-0.35703 0.40571,-0.24343 0.76274,-0.568 0.37325,-0.34079 0.61668,-0.73028 0.24343,-0.40571 0.29211,-0.82765 0.0649,-0.43817 -0.14605,-0.86011 -0.19475,-0.43817 -0.73029,-0.82766 -0.53554,-0.40571 -1.47679,-0.74651 -0.53554,0 -1.11977,0.16228 -0.568,0.14606 -1.03862,0.4544 -0.47063,0.30834 -0.77897,0.77897 -0.30834,0.47063 -0.30834,1.08731 z"
         style="font-family:'Indie Flower';-inkscape-font-specification:'Indie Flower';stroke:#000000;stroke-width:0.715;stroke-dasharray:none;stroke-opacity:1"
         id="path11081" />
      <path
         d="m 312.63741,200.7061 q 0,-0.14606 0.0974,-0.17852 0.1136,-0.0487 0.24343,-0.0487 0.0974,0 0.12983,0.0487 0.0487,0.0487 0.0649,0.1136 0.0162,0.0649 0.0487,0.12983 0.0325,0.0487 0.1136,0.0487 0.2272,0 0.55177,-0.17852 0.32457,-0.17851 0.69782,-0.38948 0.38949,-0.21097 0.81143,-0.38949 0.43817,-0.17851 0.86011,-0.17851 0.55177,0 1.00617,0.29211 0.47062,0.27589 0.82765,0.74651 0.37326,0.47063 0.63291,1.05486 0.25966,0.58422 0.43817,1.20091 0.17852,0.60045 0.25966,1.18468 0.0811,0.568 0.0811,0.98994 0,0.14606 -0.0324,0.43817 -0.0162,0.29211 -0.0812,0.58423 -0.0487,0.29211 -0.17851,0.51931 -0.12983,0.21097 -0.32457,0.21097 -0.0325,0 -0.1136,0 -0.0811,-0.0162 -0.16229,-0.0325 -0.0811,-0.0324 -0.14605,-0.0649 -0.0487,-0.0325 -0.0487,-0.0974 0.14606,-1.2496 0,-2.33691 -0.14606,-1.10354 -0.47063,-1.93119 -0.32457,-0.82766 -0.79519,-1.31451 -0.47063,-0.48686 -1.00617,-0.48686 -0.50308,0 -0.94125,0.16229 -0.43817,0.16228 -0.76274,0.47062 -0.32458,0.30835 -0.51932,0.74652 -0.17851,0.43817 -0.17851,0.95748 0,0.51931 0.0974,1.03862 0.0974,0.50309 0.21097,1.0224 0.12983,0.50308 0.2272,1.0224 0.0974,0.51931 0.0974,1.03862 -0.4544,0 -0.76274,-0.37325 -0.30834,-0.37326 -0.50308,-0.95749 -0.17852,-0.58422 -0.29212,-1.31451 -0.0974,-0.73028 -0.14605,-1.42811 -0.0325,-0.71405 -0.0325,-1.33073 0,-0.63292 0,-0.98994 z"
         style="font-family:'Indie Flower';-inkscape-font-specification:'Indie Flower';stroke:#000000;stroke-width:0.715;stroke-dasharray:none;stroke-opacity:1"
         id="path11083" />
      <path
         d="m 326.35051,203.35134 q 0,-0.60045 0.14605,-1.26582 0.16229,-0.66537 0.48686,-1.23337 0.3408,-0.568 0.84388,-0.92502 0.51931,-0.37326 1.26583,-0.37326 0.38948,0 0.77896,0.1136 0.38949,0.1136 0.7952,0.32457 0.42194,0.21097 0.86011,0.50309 0.4544,0.27588 0.95749,0.61668 0.0649,-0.64914 -0.0487,-1.33074 -0.1136,-0.69783 -0.29211,-1.36319 -0.17852,-0.66537 -0.37326,-1.2496 -0.17851,-0.60046 -0.25966,-1.07108 -0.0811,-0.47063 -0.0162,-0.77897 0.0649,-0.30834 0.38948,-0.38949 0.43817,0.32457 0.74651,0.92503 0.32457,0.58423 0.55177,1.3632 0.2272,0.77896 0.37326,1.67153 0.14605,0.87634 0.24343,1.78514 0.0974,0.9088 0.14605,1.76891 0.0649,0.86011 0.12983,1.59039 0.0649,0.71406 0.1136,1.23337 0.0649,0.50308 0.17851,0.71405 0,0.25966 -0.19474,0.32457 -0.17851,0.0649 -0.37325,0.0649 -0.16229,0 -0.27589,-0.1136 -0.1136,-0.12983 -0.17851,-0.29211 -0.0649,-0.16229 -0.12983,-0.35703 -0.0487,-0.21097 -0.1136,-0.37326 -0.0649,-0.17851 -0.14606,-0.29211 -0.0811,-0.1136 -0.21097,-0.1136 -0.0325,0 -0.0974,0.0162 -0.0487,0 -0.0487,0.0162 -0.30834,0.42194 -0.73028,0.82765 -0.40571,0.38948 -0.9088,0.69783 -0.48685,0.29211 -1.03862,0.47062 -0.53554,0.17852 -1.08731,0.17852 -0.61668,0 -1.08731,-0.40572 -0.4544,-0.40571 -0.77897,-0.97371 -0.30834,-0.56799 -0.47063,-1.20091 -0.14605,-0.63291 -0.14605,-1.10354 z m 1.00616,0.29212 q 0.16229,0.58422 0.29212,1.02239 0.12983,0.43817 0.30834,0.71406 0.19474,0.27588 0.4544,0.42194 0.25965,0.12983 0.6816,0.12983 0.51931,0 1.10353,-0.29212 0.58423,-0.30834 1.08732,-0.77896 0.50308,-0.47063 0.82765,-1.0224 0.32457,-0.568 0.32457,-1.08731 0,-0.0487 0,-0.19474 0,-0.14606 0,-0.19475 -0.86011,-0.84388 -1.59039,-1.20091 -0.71406,-0.37325 -1.28206,-0.37325 -0.568,-0.0162 -0.98994,0.24343 -0.42194,0.25965 -0.69782,0.68159 -0.27589,0.42195 -0.40572,0.94126 -0.12982,0.51931 -0.1136,0.98994 z"
         style="font-family:'Indie Flower';-inkscape-font-specification:'Indie Flower';stroke:#000000;stroke-width:0.715;stroke-dasharray:none;stroke-opacity:1"
         id="path11085" />
      <path
         d="m 335.06522,203.7246 q 0,-0.89257 0.38948,-1.55794 0.38949,-0.66537 1.0224,-1.11976 0.63291,-0.4544 1.41188,-0.66537 0.7952,-0.2272 1.5904,-0.2272 0.42194,0 0.77897,0.16228 0.37325,0.14606 0.69782,0.42194 0.3408,0.25966 0.60046,0.61669 0.25965,0.3408 0.43817,0.71405 0.19474,0.37326 0.29211,0.76274 0.0974,0.37326 0.0974,0.73028 0,0.82766 -0.32457,1.4768 -0.32457,0.64914 -0.87634,1.10354 -0.55177,0.43817 -1.24959,0.6816 -0.69783,0.2272 -1.42811,0.2272 -0.74652,0 -1.37943,-0.2272 -0.61668,-0.24343 -1.08731,-0.66537 -0.4544,-0.42194 -0.71405,-1.03863 -0.25966,-0.63291 -0.25966,-1.39565 z m 0.7952,-0.12983 q 0,0.50309 0.17851,0.97371 0.19474,0.4544 0.51931,0.7952 0.3408,0.3408 0.7952,0.55177 0.4544,0.19474 0.97371,0.19474 0.27589,0.0325 0.66537,-0.0811 0.40571,-0.12983 0.7952,-0.35703 0.40571,-0.24343 0.76274,-0.568 0.37325,-0.34079 0.61668,-0.73028 0.24343,-0.40571 0.29212,-0.82765 0.0649,-0.43817 -0.14606,-0.86011 -0.19474,-0.43817 -0.73028,-0.82766 -0.53555,-0.40571 -1.4768,-0.74651 -0.53554,0 -1.11977,0.16228 -0.56799,0.14606 -1.03862,0.4544 -0.47063,0.30834 -0.77897,0.77897 -0.30834,0.47063 -0.30834,1.08731 z"
         style="font-family:'Indie Flower';-inkscape-font-specification:'Indie Flower';stroke:#000000;stroke-width:0.715;stroke-dasharray:none;stroke-opacity:1"
         id="path11087" />
      <path
         d="m 343.16325,203.41626 q 0,-0.71406 0.27589,-1.37943 0.27588,-0.68159 0.74651,-1.20091 0.48685,-0.51931 1.11976,-0.82765 0.63292,-0.30834 1.34697,-0.30834 0.32457,0 0.6816,0.0811 0.37325,0.0649 0.69783,0.2272 0.32457,0.16229 0.53554,0.43817 0.21097,0.25966 0.21097,0.66537 0,0.0649 -0.0487,0.25966 -0.0325,0.19474 -0.0974,0.38948 -0.0649,0.19474 -0.16228,0.35703 -0.0812,0.14605 -0.14606,0.14605 0,-0.76274 -0.42194,-1.26582 -0.42194,-0.51931 -1.23337,-0.51931 -0.61668,0 -1.10354,0.25965 -0.48685,0.25966 -0.81142,0.6816 -0.32458,0.42194 -0.50309,0.95748 -0.16228,0.51932 -0.16228,1.07109 0,0.74651 0.24342,1.23336 0.24343,0.48686 0.66537,0.7952 0.42194,0.29211 0.97371,0.43817 0.55177,0.14606 1.16846,0.19474 0.61668,0.0487 1.23336,0.0325 0.61669,-0.0162 1.18469,-0.0487 0.0487,0 0.16228,0.0649 0.1136,0.0649 0.16229,0.0811 v 0.0487 q 0,0.0324 0,0.0324 0.0162,0 0.0162,0.0162 0,0.17851 -0.17851,0.30834 -0.17851,0.12983 -0.43817,0.21097 -0.25966,0.0812 -0.568,0.1136 -0.30834,0.0325 -0.61668,0.0649 -0.29211,0.0162 -0.51931,0.0162 -0.2272,0 -0.32457,0 -0.94126,0 -1.704,-0.21097 -0.74651,-0.21098 -1.28205,-0.64915 -0.51931,-0.45439 -0.81143,-1.13599 -0.29211,-0.69783 -0.29211,-1.63908 z"
         style="font-family:'Indie Flower';-inkscape-font-specification:'Indie Flower';stroke:#000000;stroke-width:0.715;stroke-dasharray:none;stroke-opacity:1"
         id="path11089" />
    </g>
    <path
       style="fill:#000000;stroke-width:0.929294;stroke-linecap:round;stroke-linejoin:miter;stroke-miterlimit:0;stroke-dasharray:none;stop-color:#000000"
       id="path10906"
       d="m 389.55136,415.60661 c -14.19175,-0.22476 -24.4483,-0.49039 -38.6275,-0.99728 -14.19972,-0.62057 -28.4162,-1.19317 -42.61501,-0.21508 -7.84217,0.54017 -13.54194,1.33323 -21.29501,2.274 -13.54468,1.7242 -27.02386,3.73581 -40.67229,4.96941 -9.24874,0.83591 -13.03923,0.99486 -22.2318,1.5452 -10.93759,0.52695 -21.89137,0.9948 -32.85559,1.00819 -6.35985,0.0107 -10.58895,-0.0984 -16.95933,-0.21239 -16.35182,-0.70079 -32.72598,-0.92206 -49.09645,-1.23737 -11.75832,-0.22798 -23.52083,-0.15324 -35.269207,-0.62277 -1.67823,-0.10216 -4.163786,-0.2011 -5.886611,-0.47855 -1.408112,-0.22691 -3.590007,-0.85076 -4.89432,-1.19677 -3.83086,-1.01621 -1.582984,-0.40543 -5.241182,-1.41572 L 61.180712,425.451 v 0 c 1.747045,0.47479 3.507209,0.92237 5.25065,1.40437 0.684545,0.18927 4.268738,1.26656 5.060158,1.41035 1.694713,0.3081 4.593111,0.36617 6.215164,0.43822 11.911765,0.32424 23.830496,0.33607 35.748606,0.39898 16.40627,0.15432 32.79518,0.6146 49.18477,1.18085 3.38073,0.0694 13.43887,0.28929 16.87615,0.30649 11.13476,0.0565 22.2503,-0.54964 33.34503,-1.1851 10.98738,-0.67153 21.97351,-1.31785 32.89048,-2.49871 7.25402,-0.78456 12.478,-1.59579 19.7067,-2.56737 3.44464,-0.46296 6.89399,-0.90608 10.34103,-1.35915 7.35436,-0.92378 13.83392,-1.83078 21.26685,-2.38736 14.08141,-1.05443 28.17843,-0.47264 42.25888,0.25434 3.02805,0.13496 6.05427,0.29412 9.08405,0.40435 10.84047,0.39414 21.71809,0.3608 32.52637,1.18069 4.18286,-2.27524 4.43308,-4.54994 8.61576,-6.82534 z"
       sodipodi:nodetypes="ccscscccccssccssscccccsscscscc" />
    <path
       style="fill:#000000;stroke-width:0.6268;stroke-linecap:round;stroke-linejoin:miter;stroke-miterlimit:0;stroke-dasharray:none;stop-color:#000000"
       id="path10908"
       d="m 382.6714,385.73151 c -0.65254,9.76825 -1.51951,19.53005 -1.90515,29.30739 0.0533,2.40628 -0.16002,4.91978 0.67013,7.27755 0.18693,0.53179 0.67527,1.40094 0.95514,1.92321 0,0 9.04115,-3.85308 9.04115,-3.85308 v 0 c -0.37099,-0.66826 -0.62693,-1.07578 -0.89253,-1.7827 -0.84544,-2.25029 -0.89988,-4.62818 -1.02891,-6.94574 -0.1,-9.79196 0.49948,-19.59887 2.11337,-29.31814 0,0 -8.9532,3.39151 -8.9532,3.39151 z" />
    <path
       style="fill:#000000;stroke-width:0.6268;stroke-linecap:round;stroke-linejoin:miter;stroke-miterlimit:0;stroke-dasharray:none;stop-color:#000000"
       id="path10910"
       d="m 70.52095,414.18384 c 0.652541,-9.76825 1.519504,-19.5301 1.905146,-29.30744 -0.05334,-2.40622 0.160024,-4.91972 -0.670128,-7.27755 -0.186935,-0.53179 -0.675271,-1.40093 -0.955145,-1.9232 0,0 -9.041142,3.85307 -9.041142,3.85307 v 0 c 0.370986,0.66832 0.626927,1.07579 0.892528,1.78276 0.845434,2.25029 0.899881,4.62813 1.028909,6.94574 0.09995,9.79196 -0.499485,19.59887 -2.113369,29.31814 0,0 8.953201,-3.39152 8.953201,-3.39152 z" />
  </g>
</svg>
